<?xml version="1.0" encoding="utf-8"?>
<svg width="256px" height="256px" viewBox="0 0 256 256" version="1.1" xmlns:xlink="http://www.w3.org/1999/xlink" xmlns="http://www.w3.org/2000/svg">
  <defs>
    <path d="M0 0L161 0L161 161L0 161L0 0Z" transform="translate(48 48)" id="path_1" />
    <clipPath id="mask_1">
      <use xlink:href="#path_1" />
    </clipPath>
  </defs>
  <g id="猫咪">
    <path d="M0 128C0 57.3075 57.3075 0 128 0C198.692 0 256 57.3075 256 128C256 198.692 198.692 256 128 256C57.3075 256 0 198.692 0 128Z" id="Ellipse" fill="#000000" fill-rule="evenodd" stroke="none" />
    <path d="M0 0L161 0L161 161L0 161L0 0Z" transform="translate(48 48)" id="Background" fill="none" fill-rule="evenodd" stroke="none" />
    <g clip-path="url(#mask_1)">
      <path d="M12.3953 5.02997C12.3264 4.99435 12.2338 4.99435 12.1579 4.96111L12.0724 4.89701L11.9893 4.84003C11.9893 4.84003 11.9703 4.80678 11.9561 4.79966C11.9412 4.79476 11.9269 4.7884 11.9133 4.78067L11.873 4.74981C11.8421 4.73557 11.7994 4.74981 11.7709 4.73082C11.7424 4.71183 11.6997 4.67147 11.6569 4.65247C11.6569 4.65247 11.6261 4.6691 11.6047 4.67385C11.5911 4.66612 11.5768 4.65976 11.562 4.65485L11.4789 4.59313L11.429 4.57651L11.3388 4.51004C11.3103 4.4958 11.2795 4.4958 11.2486 4.48392C11.2177 4.47205 11.1845 4.44594 11.156 4.43169C11.1131 4.42025 11.0694 4.41154 11.0254 4.40558C11.0113 4.4007 10.9978 4.39433 10.9851 4.3866L10.921 4.38659C10.902 4.38659 10.8664 4.35335 10.845 4.35573C10.8236 4.35811 10.8284 4.35573 10.8212 4.36997C10.806 4.37604 10.789 4.37604 10.7738 4.36997C10.7476 4.36997 10.7381 4.39371 10.7144 4.39134C10.6907 4.38897 10.6764 4.39134 10.6598 4.39134C10.6432 4.39134 10.6099 4.41033 10.5815 4.40558C10.5408 4.3901 10.5037 4.3667 10.4722 4.33674C10.4509 4.32538 10.4287 4.31585 10.4058 4.30824C10.3654 4.28924 10.3369 4.25125 10.2966 4.23226L10.2348 4.23226C10.1328 4.18953 10.0164 4.17054 9.91671 4.12779C9.89297 4.12779 9.86447 4.12779 9.84311 4.1088C9.8154 4.09417 9.78983 4.0758 9.76713 4.0542C9.71875 4.02365 9.67273 3.98953 9.62944 3.95211C9.59644 3.92723 9.56151 3.90501 9.52497 3.88565L9.44425 3.82629L9.41339 3.82629L9.33741 3.7693L9.2923 3.7693C9.27806 3.7693 9.24007 3.72182 9.20921 3.70758C9.17835 3.69334 9.17596 3.70758 9.15935 3.70758L9.12137 3.67672L9.02404 3.61024L8.99792 3.58887C8.97418 3.58887 8.94569 3.58887 8.91958 3.5675L8.77001 3.46542C8.73915 3.43692 8.71066 3.42268 8.69404 3.37282L8.69404 3.3445C8.69001 3.31554 8.68119 3.28746 8.66793 3.2614L8.61332 3.2258L8.61332 3.20442C8.59784 3.18764 8.57931 3.17394 8.55872 3.16406C8.55465 3.12159 8.54425 3.07998 8.52786 3.0406L8.45426 3.04061C8.43289 3.04061 8.37592 3.00974 8.34031 3.00024L8.27383 3.00024C8.2529 2.9925 8.23149 2.98616 8.20973 2.98124C8.18914 2.98471 8.16916 2.9911 8.15038 3.00024C8.12558 3.0075 8.09921 3.0075 8.0744 3.00024C8.02551 2.97425 7.97471 2.95203 7.92245 2.93376L7.87497 2.93377L7.7895 2.9124C7.74797 2.88501 7.70831 2.85488 7.6708 2.82219L7.61144 2.7842L7.61144 2.75571C7.57266 2.72363 7.52948 2.69725 7.48324 2.67736L7.44526 2.67736C7.43338 2.67736 7.37166 2.60851 7.32655 2.5919L7.29806 2.5919C7.27134 2.58086 7.24346 2.5729 7.21496 2.56816C7.18885 2.56816 7.16036 2.58478 7.13662 2.56816C7.11288 2.55154 7.06064 2.53967 7.02028 2.53492C6.97992 2.53017 6.94194 2.53492 6.90632 2.53492C6.87071 2.53492 6.81611 2.49693 6.771 2.48743C6.72588 2.47793 6.69502 2.48743 6.65704 2.48743C6.61906 2.48743 6.53358 2.44945 6.47423 2.43283C6.41488 2.41621 6.39114 2.43283 6.35315 2.42096C6.31517 2.40909 6.31754 2.39722 6.29855 2.3901C6.27956 2.38298 6.21546 2.36873 6.17747 2.34973L6.1015 2.29275L5.98754 2.21441C5.97452 2.20044 5.96021 2.18773 5.94481 2.17642L5.92107 2.17642C5.86646 2.17642 5.84509 2.21441 5.80473 2.23103C5.76437 2.24765 5.76437 2.23103 5.74775 2.23103L5.69077 2.23103C5.66652 2.22375 5.64274 2.21504 5.61954 2.20491L5.57206 2.20492L5.47234 2.16693C5.45226 2.1625 5.43244 2.15695 5.41298 2.15031C5.37738 2.13369 5.33464 2.09571 5.29665 2.08146C5.27356 2.07342 5.24969 2.06785 5.22543 2.06484C5.20027 2.05519 5.17569 2.04409 5.15182 2.0316C5.11859 2.01736 5.08773 2.01498 5.0545 2.00073L4.96428 1.93188C4.93579 1.92001 4.90493 1.93188 4.87644 1.91051C4.84795 1.88914 4.85033 1.89389 4.83608 1.89152L4.79334 1.89152C4.79334 1.89152 4.77672 1.87728 4.7696 1.87728C4.76248 1.87728 4.715 1.90339 4.68651 1.8939L4.62715 1.84879C4.58144 1.82202 4.53778 1.79187 4.49659 1.75856C4.47521 1.73958 4.45859 1.70872 4.43485 1.69685C4.39857 1.68635 4.36104 1.68075 4.32327 1.68023C4.27815 1.68023 4.24492 1.71584 4.19981 1.70634C4.1547 1.69684 4.11672 1.64223 4.07398 1.62324C4.03125 1.60425 4.05736 1.62324 4.04549 1.62324C4.03362 1.62324 4.017 1.60662 4.00276 1.60187C3.98852 1.59712 3.96478 1.60187 3.94816 1.60187C3.89412 1.57597 3.83649 1.55836 3.77722 1.54964C3.72498 1.55264 3.67323 1.5614 3.62291 1.57575C3.6229 1.57575 3.60628 1.59237 3.59916 1.59474C3.59204 1.59711 3.56591 1.59474 3.55642 1.59474C3.54693 1.59474 3.51606 1.61373 3.48995 1.61848C3.43095 1.58603 3.37528 1.54785 3.32376 1.50452L3.2383 1.50453C3.2193 1.50453 3.19318 1.52827 3.17657 1.53302C3.15996 1.53777 3.14333 1.53302 3.12434 1.53302C3.10535 1.53302 3.10772 1.55439 3.08636 1.55201L3.06737 1.55201C3.03887 1.55201 3.03412 1.5805 3.00089 1.57812C2.95016 1.56576 2.90248 1.54314 2.86082 1.51165L2.82283 1.48079L2.73974 1.45467L2.69937 1.45467C2.671 1.43785 2.644 1.4188 2.61865 1.39769C2.60538 1.40063 2.59358 1.40821 2.58541 1.41907C2.52368 1.41906 2.48094 1.37633 2.44296 1.35021L2.29101 1.241L2.23166 1.20064C2.23166 1.20064 2.23166 1.18402 2.21979 1.17453L2.16993 1.14129C2.16993 1.14129 2.15806 1.11517 2.14856 1.10804C2.13906 1.10091 2.12482 1.11991 2.11058 1.10804C2.09634 1.09617 2.05598 1.08193 2.02512 1.08193C1.99425 1.08193 1.97763 1.10567 1.94677 1.1033C1.89293 1.10526 1.83913 1.09803 1.7877 1.08194L1.70224 1.01783L1.63813 1.01783C1.61676 1.01783 1.61439 0.994087 1.60252 0.989337C1.5637 0.975768 1.52404 0.964665 1.48382 0.956095C1.42209 0.937104 1.35324 0.908613 1.28913 0.894372C1.25357 0.892001 1.21787 0.892001 1.1823 0.894372C1.16213 0.887453 1.1415 0.881896 1.12057 0.877751L1.06122 0.877751C0.999497 0.854009 0.933014 0.835018 0.87129 0.806527C0.809567 0.778035 0.816687 0.761414 0.785825 0.744803C0.754963 0.728192 0.731222 0.732932 0.70036 0.718691C0.669498 0.70445 0.619636 0.668838 0.581654 0.649837C0.543671 0.630837 0.543671 0.649837 0.52705 0.637967L0.498559 0.618976C0.415982 0.586473 0.331064 0.560284 0.244524 0.540631C0.208912 0.540631 0.1733 0.512139 0.137688 0.505019C0.0920385 0.49833 0.0456498 0.49833 0 0.505019C0.0363605 0.516381 0.0720301 0.529864 0.106826 0.545381C0.135318 0.559622 0.16381 0.580993 0.192292 0.595234C0.2463 0.611356 0.299396 0.630376 0.35136 0.652217L0.588774 0.832648C0.807196 0.946605 1.00188 1.09617 1.23216 1.19827C1.29803 1.22192 1.36663 1.23709 1.43633 1.24339C1.50563 1.23882 1.57521 1.24442 1.64288 1.25999C1.711 1.29638 1.77541 1.33933 1.83519 1.38822C1.85203 1.39956 1.86791 1.41226 1.88267 1.4262C1.95626 1.4618 2.02749 1.49979 2.10109 1.53303L2.16519 1.54965L2.27678 1.59713C2.31714 1.61612 2.35275 1.65173 2.39312 1.67073C2.43348 1.68972 2.53081 1.72533 2.59967 1.75619C2.66852 1.78705 2.67801 1.79655 2.716 1.81079C2.75461 1.82213 2.7945 1.82851 2.83471 1.82979L2.93443 1.82979C2.97155 1.82636 3.00889 1.82636 3.04601 1.82979C3.06025 1.82979 3.07926 1.84403 3.0935 1.84641L3.14573 1.84641C3.20164 1.87537 3.25419 1.9104 3.30242 1.95087C3.33966 1.97268 3.37466 1.99813 3.40688 2.02686C3.43538 2.05296 3.45437 2.11231 3.48286 2.13368C3.51597 2.15477 3.5532 2.16853 3.59206 2.17404L3.63243 2.19304C3.65061 2.19417 3.66884 2.19417 3.68703 2.19304L3.81049 2.24289C3.87398 2.28073 3.93431 2.32359 3.99092 2.3711C4.08129 2.42661 4.16704 2.48934 4.24731 2.55866L4.3779 2.64887C4.39913 2.67058 4.42216 2.69043 4.44674 2.70824C4.46988 2.71876 4.49493 2.72441 4.52035 2.72485C4.61294 2.74859 4.73639 2.72485 4.82186 2.75571C4.89251 2.79028 4.95868 2.83333 5.01892 2.88392C5.05788 2.90627 5.09447 2.93251 5.12812 2.96226C5.17086 3.00499 5.1946 3.0691 5.24208 3.10471C5.31263 3.11987 5.38607 3.11409 5.45338 3.08809C5.48492 3.0746 5.51879 3.06734 5.5531 3.06672C5.61482 3.07003 5.67531 3.08535 5.73116 3.11184C5.7549 3.11183 5.77627 3.14507 5.79763 3.15694L5.92109 3.2163L6.02317 3.29464L6.12764 3.36586C6.15613 3.39198 6.18699 3.42047 6.2131 3.44896C6.23922 3.47745 6.23922 3.49644 6.26059 3.50831C6.32469 3.5302 6.39234 3.53986 6.46002 3.5368C6.52226 3.52879 6.58487 3.52403 6.64759 3.52256C6.77362 3.55274 6.89444 3.60155 7.00607 3.66737C7.05118 3.68637 7.10103 3.69112 7.14615 3.71249C7.20113 3.74477 7.25352 3.78128 7.30283 3.8217L7.38593 3.87868C7.38593 3.87868 7.40017 3.90005 7.40967 3.90717C7.43646 3.91913 7.46426 3.92867 7.49276 3.93566C7.5355 3.95229 7.57586 3.98078 7.61622 3.99977C7.65659 4.01876 7.65184 3.99977 7.67083 4.02114C7.7468 4.05912 7.81328 4.11374 7.894 4.14697C7.97472 4.1802 8.0863 4.18495 8.17653 4.22056C8.2277 4.2489 8.28087 4.2735 8.33559 4.29417C8.40409 4.3011 8.47329 4.29546 8.53977 4.27753L8.72258 4.27754L8.87214 4.25379C9.00439 4.24562 9.13711 4.24959 9.26863 4.26566C9.32986 4.29208 9.38866 4.32386 9.44432 4.36062C9.52029 4.39861 9.60101 4.4271 9.68173 4.4651C9.76245 4.50309 9.80756 4.56243 9.88116 4.5933C9.95477 4.62418 10.0474 4.61942 10.1186 4.64554C10.1908 4.67573 10.2613 4.7098 10.3299 4.74762C10.3869 4.77136 10.451 4.78086 10.5103 4.80461C10.5697 4.82835 10.629 4.86871 10.686 4.89957L10.7905 4.94468C10.8409 4.97669 10.8951 5.00221 10.9519 5.02067C11.0255 5.03965 11.1133 5.03728 11.1893 5.05864C11.2249 5.05864 11.2629 5.09662 11.3009 5.10612C11.3389 5.11562 11.4505 5.12749 11.5264 5.14649C11.6024 5.16548 11.6262 5.17973 11.6736 5.18685L11.9514 5.18685C12.0393 5.20109 12.1247 5.24383 12.2102 5.25807L12.2933 5.25807C12.3621 5.26277 12.4311 5.26277 12.4999 5.25807C12.4856 5.23433 12.4547 5.22958 12.4357 5.21059C12.4168 5.1916 12.4168 5.03965 12.3954 5.03016L12.3953 5.02997ZM11.2009 6.711C11.172 6.69832 11.1442 6.68322 11.1178 6.66588L11.0965 6.64451C11.0612 6.62473 11.0248 6.60728 10.9872 6.59228C10.973 6.59228 10.9659 6.56617 10.9516 6.55904C10.9374 6.55191 10.8709 6.53293 10.8329 6.51393C10.7949 6.49493 10.8068 6.49018 10.7926 6.47831L10.7641 6.46407C10.7334 6.44307 10.7048 6.41922 10.6786 6.39285C10.662 6.37623 10.6311 6.37148 10.6098 6.35961C10.5884 6.34774 10.586 6.33587 10.5741 6.324C10.5486 6.30527 10.5207 6.2901 10.4911 6.27887L10.4436 6.2314C10.4151 6.21716 10.3937 6.19816 10.3676 6.18629C10.3415 6.17442 10.3272 6.18629 10.3059 6.17205L10.2038 6.09607L10.1421 6.09607C10.1421 6.09607 10.1421 6.08183 10.1207 6.08183C10.0752 6.08499 10.03 6.09133 9.98536 6.10082L9.96162 6.10082C9.95212 6.10082 9.90702 6.07945 9.88328 6.07471C9.85953 6.06997 9.83816 6.09608 9.80493 6.09133C9.7717 6.08658 9.74795 6.06996 9.72184 6.06759C9.69572 6.06522 9.68859 6.08183 9.66723 6.08658L9.54378 6.00112L9.49392 5.96075L9.43457 5.96075C9.40644 5.94492 9.37706 5.93142 9.34672 5.92039L9.29449 5.92039L9.27312 5.90377L9.2114 5.90377L9.14254 5.85154L9.01434 5.78743L8.95735 5.7447L8.91699 5.7447L8.85527 5.69959C8.77978 5.6531 8.71241 5.59455 8.65584 5.52628C8.58997 5.47792 8.51342 5.44616 8.43266 5.43368C8.4146 5.46658 8.39224 5.49691 8.36618 5.52391C8.26647 5.54052 8.21187 5.47405 8.15015 5.4313C8.08842 5.38856 8.08842 5.40044 8.07417 5.35771L8.03144 5.34584L7.96972 5.34584C7.9452 5.33334 7.92211 5.31821 7.90086 5.30073C7.87475 5.30073 7.87 5.32684 7.83439 5.33159C7.80703 5.31211 7.77518 5.29985 7.7418 5.29598L7.70143 5.29598C7.70143 5.29598 7.68719 5.29598 7.68006 5.28174C7.67293 5.2675 7.64208 5.28174 7.62308 5.26274C7.60408 5.24375 7.55185 5.20339 7.51149 5.1844C7.47113 5.16541 7.38328 5.14879 7.32393 5.11793L7.13637 4.9826C7.11975 4.9826 7.09839 4.9826 7.08177 4.96836L6.96781 4.88289L6.89659 4.83541C6.89659 4.83541 6.89659 4.81642 6.88235 4.80692C6.8681 4.79742 6.83961 4.78793 6.82774 4.76894C6.81587 4.74994 6.82774 4.70958 6.80875 4.68584C6.78976 4.6621 6.78264 4.65735 6.77314 4.64311L6.77314 4.6075C6.76127 4.58138 6.73516 4.56476 6.71854 4.54339L6.70192 4.51253L6.59033 4.4698L6.53335 4.4698C6.51435 4.4698 6.5096 4.45318 6.49773 4.44843C6.45544 4.43392 6.41163 4.42436 6.36715 4.41993C6.32204 4.41994 6.28169 4.41994 6.24608 4.40569L6.16535 4.34634C6.12974 4.32972 6.09413 4.32023 6.06089 4.30361L5.98491 4.24426C5.96354 4.24426 5.93743 4.24426 5.91606 4.22763L5.81397 4.15166C5.79023 4.13504 5.75462 4.11842 5.73325 4.10181L5.69289 4.05669C5.67865 4.04245 5.65728 4.03532 5.64541 4.02108C5.63353 4.00684 5.5813 3.93562 5.53145 3.91425C5.4704 3.90049 5.40644 3.9089 5.35102 3.93799L5.25368 3.95698C5.22757 3.95698 5.18958 3.99971 5.1516 3.99022C5.12477 3.98283 5.09857 3.9733 5.07325 3.96173L4.99966 3.90713L4.94981 3.90713C4.91571 3.90482 4.88213 3.89763 4.85009 3.88576L4.74088 3.80266L4.72189 3.80266C4.70527 3.80266 4.69103 3.78604 4.67678 3.78129L4.63167 3.78129C4.63167 3.78129 4.60793 3.76467 4.59369 3.7623C4.57944 3.75993 4.56757 3.7623 4.55332 3.7623C4.51588 3.74553 4.48076 3.72399 4.44886 3.69819L4.42749 3.6792L4.39424 3.6792L4.27791 3.59611L4.2233 3.55813C4.2233 3.55813 4.2233 3.54151 4.21143 3.53201L4.15208 3.49165L4.15208 3.46791L4.09748 3.4323C4.09748 3.42043 4.09748 3.39906 4.08086 3.38482L4.01913 3.35157C3.97766 3.33857 3.9344 3.33217 3.89093 3.33258L3.80546 3.31121L3.72949 3.31121C3.6915 3.31121 3.64164 3.28984 3.60366 3.28272L3.53719 3.29934C3.51817 3.29344 3.49987 3.28548 3.48258 3.2756C3.45793 3.29657 3.43911 3.32355 3.42798 3.35394C3.29279 3.37747 3.15431 3.33715 3.05288 3.24474C3.02676 3.22575 2.9674 3.19726 2.95078 3.16876C2.93422 3.13508 2.93422 3.09562 2.95078 3.06194L2.9128 3.04531L2.86057 3.04531C2.82732 3.03344 2.80358 2.99782 2.77272 2.98358C2.75882 2.97853 2.74453 2.97455 2.73 2.9717C2.6903 2.95359 2.64896 2.93928 2.60654 2.92898C2.54481 2.91711 2.51632 2.99308 2.48307 2.98121L2.44509 2.95035C2.42847 2.95035 2.40948 2.95035 2.39524 2.93611L2.33826 2.89338C2.29466 2.8668 2.25336 2.83662 2.2148 2.80315L2.14358 2.75568C2.1222 2.73194 2.11746 2.70583 2.09134 2.69158C2.08863 2.68067 2.08863 2.66925 2.09134 2.65833C2.04861 2.64646 1.98688 2.65833 1.94414 2.64646C1.8605 2.61144 1.77489 2.58131 1.68775 2.55624L1.63314 2.55625C1.6013 2.55217 1.57061 2.54167 1.54293 2.52539L1.44559 2.47078L1.37199 2.41618L1.34113 2.41618L1.25566 2.35208C1.23429 2.35208 1.20818 2.33784 1.18444 2.32596L1.10372 2.26424C1.08355 2.25786 1.06291 2.2531 1.04199 2.25C1.08138 2.28586 1.11789 2.32477 1.1512 2.36634C1.17257 2.38771 1.20105 2.40432 1.22005 2.42569C1.23905 2.44706 1.26278 2.48029 1.28891 2.49216C1.36488 2.53015 1.44798 2.55389 1.52632 2.59188L1.74474 2.74383L1.79697 2.78419C1.86339 2.82333 1.92759 2.86613 1.98928 2.9124L2.08661 2.97887C2.13052 3.01618 2.16819 3.06027 2.1982 3.10945C2.22194 3.14506 2.23381 3.20916 2.26705 3.22579C2.37389 3.28039 2.50447 3.28277 2.61605 3.33737L2.71102 3.4086C2.77583 3.44983 2.83629 3.49756 2.89145 3.55104C2.94605 3.6104 2.98641 3.67925 3.04577 3.73385C3.06951 3.7576 3.11462 3.76472 3.14548 3.78134L3.19296 3.81695C3.24197 3.85451 3.29353 3.88861 3.34727 3.91904L3.37339 3.94041C3.42895 3.97094 3.486 3.99868 3.54432 4.0235C3.60369 4.04724 3.66541 4.05911 3.72002 4.08523L3.83161 4.16832L3.95032 4.24904C3.9625 4.26517 3.976 4.28025 3.99068 4.29415C3.99856 4.29519 4.00654 4.2952 4.01442 4.29416L4.18061 4.37488C4.22097 4.39625 4.25658 4.43186 4.29695 4.45323L4.32781 4.47697C4.40378 4.51495 4.48925 4.53395 4.56522 4.56718C4.6412 4.60041 4.65782 4.62417 4.70767 4.64316C4.75752 4.66215 4.843 4.6669 4.90235 4.69539L4.9902 4.76186L5.11365 4.84733C5.14689 4.88057 5.17064 4.93517 5.21337 4.95416C5.27033 4.96911 5.32824 4.98022 5.38668 4.98741C5.46774 5.01215 5.54705 5.04229 5.62409 5.07762C5.69532 5.10611 5.77604 5.10611 5.84726 5.1346C5.9541 5.17734 6.04432 5.24381 6.14878 5.28655C6.19614 5.30072 6.24457 5.31104 6.2936 5.31742C6.36245 5.33404 6.43605 5.35303 6.50015 5.3744C6.52145 5.37685 6.54296 5.37685 6.56426 5.3744C6.6816 5.36403 6.7998 5.36963 6.91563 5.39102L7.12693 5.48598C7.14592 5.48598 7.16729 5.48598 7.18391 5.49786C7.27413 5.53347 7.37384 5.55721 7.46169 5.59519C7.54953 5.63317 7.59463 5.64742 7.65637 5.67829C7.7181 5.70915 7.72759 5.72102 7.76795 5.73764C7.80832 5.75426 7.96263 5.73764 8.03861 5.76138C8.11458 5.78512 8.13594 5.81123 8.18581 5.83023C8.23567 5.84924 8.27365 5.84686 8.31401 5.86585C8.35438 5.88484 8.43747 5.96318 8.5087 5.99405C8.57992 6.02493 8.73187 6.02017 8.82683 6.06053C8.89108 6.09129 8.95369 6.12537 9.01439 6.16262C9.03338 6.16261 9.05238 6.16261 9.07375 6.1816C9.12474 6.20707 9.17799 6.22773 9.23282 6.24333C9.27597 6.25197 9.31956 6.25832 9.36339 6.26232L9.43462 6.26232C9.50109 6.26232 9.57707 6.28369 9.63879 6.29318C9.70051 6.30267 9.76937 6.29318 9.83347 6.31217C9.91772 6.34668 9.99744 6.39132 10.0709 6.44512L10.1017 6.47123C10.1563 6.49734 10.2157 6.50921 10.2751 6.53296C10.308 6.54962 10.3421 6.5639 10.3771 6.57569L10.4887 6.59706L10.5481 6.59706C10.6193 6.59706 10.6882 6.64217 10.7546 6.65641C10.8211 6.67065 10.9113 6.68252 10.992 6.70153C11.0066 6.70887 11.0217 6.71521 11.0371 6.72053C11.0707 6.73043 11.1048 6.73836 11.1392 6.74427C11.1604 6.74033 11.1822 6.74033 11.2033 6.74427L11.2009 6.711ZM12.3837 3.21459L12.36 3.21459C12.3378 3.20794 12.3164 3.1992 12.2959 3.18848L12.2152 3.12676C12.1843 3.11252 12.1487 3.11489 12.1178 3.10065C12.087 3.08641 12.0513 3.04129 12.0134 3.02467L11.954 3.02467L11.9231 3.00568L11.8852 3.00568L11.8068 2.94633L11.5955 2.78726L11.5219 2.73266C11.4759 2.71681 11.428 2.70723 11.3795 2.70417L11.3249 2.70416C11.2941 2.69602 11.264 2.68571 11.2346 2.6733C11.1895 2.66694 11.145 2.65662 11.1017 2.64244L10.8643 2.4715C10.8482 2.44895 10.8339 2.42513 10.8216 2.40028C10.8028 2.37722 10.7822 2.35577 10.7598 2.33617C10.7147 2.29595 10.6599 2.26813 10.6008 2.25545C10.5758 2.25006 10.5512 2.24292 10.5272 2.23407L10.4417 2.16997L10.3562 2.11299C10.3396 2.08688 10.3206 2.06314 10.304 2.0394L10.2731 2.0394C10.2151 2.01483 10.1546 1.99653 10.0927 1.98479C10.0666 1.98479 10.031 1.99903 10.0096 1.98479L9.95739 1.94443C9.91703 1.92544 9.88617 1.9017 9.8458 1.88033L9.81494 1.85184C9.7912 1.83997 9.76509 1.85184 9.74135 1.83047C9.71761 1.80909 9.71286 1.81384 9.69623 1.80909C9.68361 1.8104 9.67088 1.8104 9.65825 1.80909C9.61789 1.7901 9.57991 1.74974 9.54192 1.73075L9.50867 1.73075L9.39234 1.64528L9.3591 1.64528C9.34146 1.63546 9.32213 1.62901 9.30211 1.6263L9.23564 1.64528C9.20478 1.64528 9.18341 1.62154 9.15491 1.61679C9.12642 1.61204 9.10506 1.63341 9.08606 1.63341C9.06634 1.63107 9.04642 1.63107 9.02671 1.63341C9.02671 1.63341 8.99585 1.65478 8.97447 1.65003C8.9531 1.64528 8.94598 1.63341 8.92936 1.63104L8.87238 1.63104C8.85938 1.62567 8.84585 1.62169 8.83202 1.61916L8.78928 1.61917C8.68551 1.58841 8.58703 1.54197 8.49727 1.48147C8.45691 1.4601 8.42604 1.41737 8.38331 1.39838L8.38331 1.38176C8.34533 1.38176 8.32159 1.36039 8.28835 1.35327C8.2336 1.34394 8.18019 1.328 8.12928 1.30578L8.02244 1.22744L7.97259 1.2132C7.95597 1.2132 7.94173 1.19421 7.92511 1.19183C7.89437 1.1957 7.86326 1.1957 7.83252 1.19183L7.74467 1.12535L7.64258 1.05413C7.61733 1.03075 7.59035 1.00932 7.56185 0.990027C7.56185 0.990027 7.56185 0.975786 7.54761 0.973406C7.52082 0.969836 7.49368 0.969836 7.46689 0.973406C7.45188 0.980123 7.43581 0.984144 7.41941 0.985286L7.38142 0.973406L7.32682 0.973406C7.24136 0.973406 7.1725 0.921173 7.08941 0.914052L6.9707 0.925923C6.9707 0.925923 6.94696 0.944914 6.92797 0.942544C6.84807 0.920664 6.77419 0.880878 6.71194 0.826217L6.66444 0.788225C6.63823 0.778149 6.61122 0.770203 6.58372 0.764484L6.5125 0.764484C6.49112 0.764484 6.47213 0.743113 6.44602 0.743113C6.41991 0.743113 6.40329 0.766854 6.3748 0.762104C6.34631 0.757353 6.32019 0.738362 6.28933 0.733612C6.25772 0.735992 6.22598 0.735992 6.19437 0.733612C6.17063 0.733612 6.15163 0.69563 6.12789 0.683759C6.10213 0.676034 6.07598 0.669691 6.04954 0.664758C6.01723 0.648617 5.98694 0.628705 5.95933 0.605414C5.88878 0.62336 5.81606 0.631344 5.74329 0.629156C5.69944 0.61099 5.65664 0.590387 5.61509 0.567432C5.57947 0.553191 5.54386 0.550811 5.51062 0.53419C5.483 0.514796 5.45358 0.498099 5.42277 0.484328C5.39408 0.474971 5.36472 0.467832 5.33493 0.462966C5.29696 0.462803 5.25951 0.471757 5.22572 0.489068L5.16874 0.489078C5.15212 0.489078 5.13313 0.503319 5.10939 0.489078C5.07241 0.477514 5.03663 0.46241 5.00256 0.443965L4.95744 0.443965C4.9432 0.443965 4.92895 0.424974 4.91232 0.422594L4.88146 0.422594C4.86009 0.422594 4.84348 0.389353 4.82211 0.379862C4.80947 0.378854 4.79677 0.378854 4.78413 0.379862C4.75802 0.367991 4.73189 0.34425 4.70578 0.332379C4.67967 0.320508 4.60845 0.311008 4.5657 0.294397C4.53835 0.279331 4.50975 0.266625 4.48024 0.256414L4.42089 0.256414L4.36865 0.235043C4.33779 0.235043 4.31642 0.258785 4.27606 0.256414C4.2357 0.254044 4.2357 0.237423 4.21433 0.232673C4.19297 0.227923 4.13599 0.246914 4.10038 0.232673L4.01491 0.208932L3.95081 0.208932C3.92232 0.208932 3.89383 0.189941 3.86534 0.187561C3.83686 0.185181 3.75376 0.187561 3.75376 0.187561C3.74124 0.190248 3.72829 0.190248 3.71578 0.187561C3.67304 0.187561 3.64218 0.130578 3.60419 0.113966C3.5662 0.097355 3.57808 0.113966 3.56383 0.113966C3.54958 0.113966 3.48073 0.0854747 3.44275 0.0807245C3.40477 0.0759743 3.39764 0.102096 3.37628 0.102096C3.35492 0.102096 3.32879 0.0854747 3.30505 0.0807245L3.24333 0.0807245C3.2071 0.0746884 3.17192 0.063499 3.13886 0.0474827C3.10562 0.0474827 3.10088 0.0759743 3.06289 0.0830948C3.01969 0.0598045 2.97909 0.0319462 2.94182 0C2.90857 0 2.91332 0.0237414 2.89196 0.0356121L2.83261 0.049853C2.81361 0.049853 2.80174 0.0783446 2.78749 0.0878354C2.77324 0.0973262 2.74951 0.0878354 2.72814 0.104456C2.70677 0.121077 2.70677 0.125827 2.6949 0.130568C2.66178 0.133706 2.62852 0.126221 2.59993 0.109197C2.57382 0.109197 2.57382 0.142439 2.55957 0.15905C2.6023 0.173291 2.64504 0.199412 2.68778 0.216033C2.73052 0.232654 2.78749 0.232654 2.83973 0.246895L2.85397 0.246895C2.92019 0.253334 2.98599 0.263641 3.05102 0.277757C3.11679 0.312755 3.18503 0.342906 3.25519 0.367972C3.38577 0.401214 3.56858 0.348981 3.70153 0.367972C3.83447 0.386963 4.01728 0.496179 4.17635 0.534162C4.2907 0.5487 4.40407 0.5701 4.51585 0.598265C4.66305 0.659989 4.78176 0.762085 4.93845 0.811938C5.01644 0.830459 5.09585 0.842377 5.17586 0.84754L5.23758 0.84755C5.30161 0.852818 5.36512 0.863144 5.42751 0.878411C5.45551 0.879899 5.48331 0.883872 5.51061 0.890273C5.58895 0.921144 5.65069 0.985248 5.72903 1.01611C5.80737 1.04697 5.91184 1.06122 5.99494 1.0992C6.07803 1.13719 6.0899 1.15381 6.13738 1.17518C6.18487 1.19655 6.25846 1.20842 6.31069 1.23453C6.39854 1.27726 6.46976 1.35324 6.54811 1.39597L6.65257 1.44345C6.70006 1.46245 6.74754 1.46957 6.79265 1.49094C6.90424 1.54792 6.98733 1.65713 7.10367 1.70698L7.13691 1.70698C7.15353 1.70698 7.17252 1.7236 7.18914 1.72597C7.24613 1.74259 7.29361 1.74021 7.35296 1.75208C7.41231 1.76395 7.44793 1.78057 7.49304 1.79006L7.54764 1.79006C7.61412 1.79006 7.68772 1.81144 7.75181 1.82805C7.82197 1.84915 7.88964 1.8778 7.95361 1.91351C7.97736 1.91351 7.99873 1.94675 8.02247 1.95862C8.09369 1.99502 8.16729 2.02827 8.24326 2.05834C8.33454 2.08211 8.42736 2.09957 8.52104 2.11057C8.6218 2.14083 8.72087 2.17649 8.81779 2.21742C8.87479 2.23878 8.93651 2.2364 8.99349 2.26252C9.05048 2.28864 9.06235 2.30525 9.10033 2.32188C9.13831 2.3385 9.25228 2.3836 9.3235 2.42159L9.47307 2.5308L9.62027 2.63288C9.64722 2.66395 9.68037 2.68902 9.7176 2.70649C9.73577 2.70781 9.75402 2.7078 9.7722 2.70647C9.82508 2.72222 9.87904 2.73412 9.93365 2.74209L10.1544 2.74209C10.1766 2.74091 10.1987 2.74091 10.2209 2.74209C10.2689 2.75597 10.3139 2.7785 10.3538 2.80855L10.4013 2.84655C10.4559 2.87504 10.5177 2.88453 10.577 2.91065C10.6128 2.93017 10.6512 2.94455 10.691 2.95337C10.7568 2.95683 10.8226 2.9488 10.8857 2.92965C10.9304 2.91243 10.9778 2.90281 11.0257 2.90115C11.1484 2.90454 11.2703 2.92207 11.389 2.95339C11.4416 2.96725 11.4931 2.98469 11.5433 3.00561C11.5741 3.02484 11.6034 3.04627 11.6311 3.06972C11.6596 3.08871 11.6881 3.10296 11.7142 3.12195C11.7403 3.14094 11.7807 3.19081 11.8068 3.19793C11.8266 3.19912 11.8464 3.19912 11.8662 3.19793L11.992 3.2098L12.0585 3.2098C12.087 3.2098 12.1178 3.22167 12.1416 3.22404L12.2175 3.22404C12.2175 3.22404 12.2437 3.23828 12.2555 3.24066C12.2674 3.24304 12.3125 3.24066 12.3386 3.24066C12.3583 3.24567 12.3775 3.25283 12.3956 3.26202C12.3956 3.26203 12.4146 3.2834 12.4289 3.28577C12.4431 3.28814 12.474 3.27153 12.4906 3.28577L12.5143 3.28577C12.4597 3.29527 12.4312 3.23354 12.3837 3.21455L12.3837 3.21459ZM12.5283 3.46973C12.5283 3.46973 12.8814 3.11597 12.5283 3.46973L12.5283 3.46973Z" transform="translate(179.61914 202.25)" id="Shape" fill="#333333" fill-rule="evenodd" stroke="none" />
      <path d="M129.604 150.606C128.436 141.527 115.946 144.106 115.946 144.106C99.1392 136.271 94.7352 126.516 94.7352 126.516C92.399 122.111 95.3643 122.653 95.3643 122.653C98.4198 124.45 122.057 137.121 122.057 137.121C126.19 140.359 131.853 143.954 131.853 143.954C135.086 144.944 135.447 140.808 135.447 140.808C137.346 144.495 138.412 142.427 138.412 142.427C139.761 140.54 139.041 137.394 139.041 137.394C136.166 132.002 130.233 132.99 130.233 132.99L124.393 129.844C108.035 120.856 104.17 114.115 104.17 114.115L104.35 107.285C115.046 106.927 113.875 99.6474 113.875 99.6474C116.034 98.2989 113.427 96.7699 113.427 96.7699C111.361 94.8706 110.732 92.9048 110.732 92.9048C109.293 85.6257 104.26 84.5479 104.26 84.5479C103.805 82.0288 103.205 79.5381 102.463 77.0883C100.934 74.123 99.6758 82.6604 99.6758 82.6604C95.0035 70.7897 91.1289 71.2455 91.1289 71.2455L90.6802 81.2169C85.3763 80.9486 81.3332 85.253 81.3332 85.253C76.7582 89.5003 74.422 89.581 74.422 89.581C71.8105 86.1646 63.907 81.2217 63.907 81.2217C58.7836 77.4468 50.9655 68.9094 50.9655 68.9094C39.5506 54.2609 23.6416 51.9225 23.6416 51.9225L19.7789 51.3835C14.9665 50.6713 12.419 44.914 12.419 44.914C4.68882 24.5107 14.7552 11.7496 14.7552 11.7496C21.9441 0.963857 34.6173 14.3611 34.6173 14.3611C38.302 18.3141 41.4477 14.9001 41.4477 14.9001C43.4254 7.07964 32.4592 2.04646 32.4592 2.04646C18.7082 -4.24263 8.00559 5.97091 8.00559 5.97091C-4.39693 18.7011 5.39404 46.0939 5.39404 46.0939C8.71784 53.1926 4.58446 58.5866 4.58446 58.5866C0 66.3144 0 75.7517 0 75.7517C0.541304 95.9723 11.9538 105.5 11.9538 105.5C21.2176 116.454 22.0248 122.026 22.0248 122.026L22.0248 131.285C22.5637 136.138 23.6416 137.396 23.6416 137.396L30.2892 144.585C32.9007 149.528 34.6932 150.247 34.6932 150.247C39.9163 152.315 42.3308 148.182 42.3308 148.182C44.8474 142.159 36.31 140.271 36.31 140.271L32.8058 135.777C29.482 131.375 31.7255 128.859 31.7255 128.859L37.5683 119.78L37.7487 127.14C38.1072 130.464 39.2753 132.173 39.2753 132.173C48.2638 144.576 52.2191 145.468 52.2191 145.468C57.6108 146.007 58.6886 141.964 58.6886 141.964C59.7665 136.66 52.6678 134.683 52.6678 134.683L48.6318 131.088C44.045 125.711 46.3835 124.092 46.3835 124.092C48.2709 123.014 49.7073 118.79 49.7073 118.79C50.3364 116.632 53.7433 117.981 53.7433 117.981C57.0671 119.868 61.832 121.091 61.832 121.091C66.8652 121.328 73.7858 125.889 73.7858 125.889C83.223 137.123 96.2547 144.044 96.2547 144.044C109.286 153.21 114.773 152.762 114.773 152.762C117.56 152.852 121.874 156.275 121.874 156.275C124.839 157.543 125.827 154.739 125.827 154.739C125.957 155.312 126.237 155.839 126.637 156.268C129.785 156.537 129.604 150.606 129.604 150.606L129.604 150.606ZM156.186 147.907L156.105 147.836C156.008 147.784 155.889 147.762 155.787 147.71C155.754 147.691 155.737 147.66 155.701 147.637L155.559 147.537C155.54 147.525 155.523 147.511 155.507 147.496C155.452 147.47 155.381 147.451 155.324 147.425C155.267 147.399 155.155 147.33 155.067 147.295C155.02 147.276 154.961 147.276 154.915 147.257C154.823 147.219 154.735 147.15 154.645 147.112C154.573 147.088 154.498 147.072 154.422 147.067C154.374 147.067 154.331 147.041 154.282 147.034C154.232 147.026 154.113 147.012 154.032 146.993C153.952 146.974 153.883 146.934 153.795 146.915C153.696 146.902 153.599 146.883 153.503 146.858C153.406 146.825 153.318 146.751 153.218 146.725C153.118 146.699 153.016 146.725 152.919 146.701C152.821 146.677 152.707 146.649 152.601 146.63C152.52 146.624 152.441 146.61 152.363 146.59C152.216 146.506 152.078 146.408 151.95 146.298L151.82 146.162C151.782 146.136 151.741 146.105 151.703 146.082L151.641 146.013C151.588 145.943 151.522 145.885 151.447 145.839C151.375 145.818 151.302 145.802 151.228 145.792C151.11 145.761 150.991 145.68 150.884 145.649C150.777 145.619 150.668 145.628 150.561 145.609C150.538 145.609 150.516 145.592 150.49 145.588C150.464 145.583 150.374 145.573 150.317 145.559C150.26 145.545 150.248 145.524 150.212 145.524C150.196 145.523 150.181 145.523 150.165 145.524L150.037 145.524C149.958 145.531 149.878 145.531 149.799 145.524C149.735 145.512 149.68 145.478 149.619 145.464C149.455 145.445 149.295 145.402 149.144 145.336C149.077 145.3 149.035 145.224 148.966 145.179C148.895 145.123 148.815 145.08 148.728 145.053C148.698 145.053 148.664 145.072 148.633 145.077C148.603 145.082 148.534 145.091 148.484 145.096L148.161 145.096L147.997 145.058L147.895 145.058C147.818 145.043 147.746 145.012 147.681 144.968C147.648 144.94 147.619 144.908 147.596 144.871C147.549 144.792 147.478 144.73 147.394 144.693C147.314 144.705 147.234 144.724 147.157 144.75C147.1 144.756 147.043 144.756 146.986 144.75C146.886 144.754 146.787 144.747 146.689 144.728C146.577 144.7 146.471 144.579 146.361 144.529C146.334 144.512 146.305 144.499 146.274 144.491C146.235 144.487 146.196 144.487 146.157 144.491L145.955 144.491C145.821 144.5 145.686 144.5 145.552 144.491C145.459 144.498 145.365 144.498 145.272 144.491C145.216 144.48 145.161 144.466 145.108 144.448C145.084 144.448 145.07 144.422 145.046 144.417C145.022 144.412 145.008 144.417 144.992 144.417C144.947 144.394 144.899 144.38 144.849 144.375C144.802 144.375 144.737 144.42 144.69 144.427C144.635 144.43 144.579 144.43 144.524 144.427C144.444 144.432 144.365 144.427 144.286 144.413L144.229 144.379C144.209 144.374 144.188 144.368 144.168 144.36C144.125 144.338 144.084 144.312 144.044 144.284L143.949 144.204C143.908 144.174 143.862 144.15 143.814 144.135C143.764 144.116 143.705 144.113 143.655 144.099C143.56 144.075 143.472 144.045 143.379 144.026C143.325 144.026 143.261 144.026 143.204 144.011L143.054 143.976L142.981 143.942C142.879 143.919 142.776 143.904 142.674 143.885L142.598 143.885C142.501 143.888 142.403 143.883 142.306 143.869C142.226 143.832 142.15 143.784 142.083 143.726C142.009 143.679 141.93 143.643 141.846 143.617C141.535 143.544 141.221 143.546 140.913 143.494L140.526 143.494C140.455 143.482 140.39 143.451 140.319 143.432C140.278 143.424 140.237 143.419 140.196 143.415C140.148 143.404 140.102 143.391 140.056 143.375C140.056 143.396 140.177 143.458 140.203 143.472C140.229 143.487 140.295 143.501 140.336 143.517C140.439 143.564 140.545 143.602 140.654 143.631L140.697 143.631C140.72 143.631 140.739 143.655 140.763 143.66C140.787 143.665 140.882 143.66 140.936 143.681C140.991 143.703 141.005 143.712 141.043 143.719C141.081 143.726 141.134 143.719 141.176 143.719C141.259 143.736 141.342 143.769 141.414 143.79C141.44 143.79 141.452 143.817 141.478 143.831C141.504 143.845 141.53 143.852 141.554 143.864C141.577 143.876 141.62 143.928 141.661 143.945C141.737 143.978 141.829 143.999 141.898 144.028C141.945 144.052 141.994 144.072 142.045 144.087L142.1 144.087C142.126 144.098 142.151 144.111 142.176 144.125L142.311 144.125C142.375 144.148 142.435 144.182 142.487 144.225C142.522 144.246 142.525 144.287 142.551 144.306C142.585 144.322 142.621 144.336 142.658 144.346C142.677 144.346 142.679 144.384 142.689 144.386C142.698 144.389 142.717 144.37 142.736 144.367L142.812 144.367C142.826 144.367 142.831 144.351 142.845 144.348L143.173 144.348C143.232 144.348 143.313 144.329 143.37 144.386C143.369 144.404 143.375 144.421 143.387 144.434C143.428 144.43 143.471 144.43 143.512 144.434L143.558 144.462L143.662 144.498L143.724 144.498C143.791 144.498 143.857 144.511 143.918 144.538C143.952 144.56 143.933 144.595 143.964 144.617L143.99 144.617C144.011 144.629 144.009 144.652 144.013 144.664C144.018 144.676 144.054 144.683 144.068 144.702C144.082 144.721 144.094 144.754 144.108 144.778L144.187 144.856C144.271 144.848 144.356 144.848 144.441 144.856C144.462 144.883 144.464 144.916 144.491 144.93C144.517 144.944 144.526 144.93 144.538 144.961C144.55 144.992 144.538 144.989 144.538 144.999C144.579 145.051 144.624 145.1 144.673 145.144C144.742 145.179 144.814 145.205 144.889 145.222C144.911 145.222 144.927 145.246 144.951 145.253C144.975 145.26 144.994 145.253 145.013 145.265C145.032 145.277 145.029 145.279 145.041 145.281C145.101 145.296 145.174 145.267 145.234 145.293C145.293 145.319 145.291 145.384 145.338 145.414C145.376 145.444 145.418 145.466 145.464 145.481C145.502 145.482 145.539 145.477 145.576 145.467C145.643 145.462 145.71 145.462 145.777 145.467L145.872 145.467C145.908 145.467 145.901 145.526 145.941 145.547C145.953 145.548 145.965 145.548 145.977 145.547C145.994 145.554 146.011 145.562 146.027 145.571C146.045 145.576 146.063 145.58 146.081 145.583C146.122 145.583 146.15 145.619 146.188 145.628L146.331 145.628C146.376 145.628 146.411 145.659 146.454 145.671C146.487 145.675 146.52 145.683 146.551 145.695C146.582 145.695 146.608 145.723 146.639 145.733C146.67 145.742 146.763 145.733 146.81 145.749C146.834 145.757 146.858 145.767 146.881 145.778L147.012 145.813C147.036 145.813 147.045 145.837 147.066 145.846C147.099 145.851 147.13 145.861 147.159 145.875L147.209 145.927C147.226 145.939 147.254 145.946 147.266 145.97C147.285 146.021 147.311 146.07 147.342 146.115L147.373 146.115C147.396 146.118 147.42 146.118 147.444 146.115L147.743 146.115C147.795 146.115 147.843 146.155 147.895 146.169C147.921 146.167 147.947 146.167 147.973 146.169C148.021 146.188 148.057 146.229 148.106 146.25C148.156 146.271 148.261 146.298 148.344 146.336C148.427 146.374 148.415 146.404 148.458 146.423C148.5 146.442 148.579 146.454 148.631 146.478C148.683 146.502 148.7 146.54 148.745 146.566C148.79 146.592 148.847 146.604 148.887 146.623C148.928 146.642 148.93 146.675 148.961 146.694C148.993 146.71 149.027 146.724 149.061 146.734C149.075 146.734 149.08 146.751 149.094 146.753C149.151 146.77 149.22 146.753 149.279 146.753C149.296 146.753 149.303 146.772 149.32 146.777C149.382 146.793 149.447 146.799 149.512 146.796L149.543 146.775L149.631 146.775C149.694 146.77 149.757 146.77 149.82 146.775L149.923 146.817C149.944 146.829 149.951 146.846 149.97 146.853C150.038 146.874 150.107 146.891 150.177 146.903C150.209 146.91 150.239 146.927 150.262 146.95C150.274 146.967 150.283 147 150.307 147.015C150.332 147.027 150.358 147.036 150.386 147.043L150.452 147.095C150.495 147.114 150.556 147.124 150.599 147.14C150.642 147.157 150.651 147.185 150.68 147.193C150.708 147.2 150.773 147.117 150.803 147.091C150.832 147.096 150.861 147.096 150.889 147.091L150.913 147.074L150.996 147.074C151.03 147.06 151.06 147.038 151.084 147.01C151.084 147.01 151.084 146.988 151.107 146.979C151.152 146.953 151.203 146.941 151.254 146.943L151.492 146.943C151.525 146.943 151.551 146.974 151.584 146.981L151.841 146.981C151.862 146.981 151.879 147 151.903 147.005C151.926 147.01 151.99 147.005 152.031 147.005C152.071 147.005 152.062 147.022 152.085 147.029L152.209 147.029L152.244 147.048L152.373 147.048C152.423 147.048 152.477 147.067 152.527 147.062C152.6 147.055 152.673 147.055 152.745 147.062C152.785 147.06 152.825 147.06 152.864 147.062C152.895 147.062 152.921 147.095 152.952 147.102C153.087 147.136 153.22 147.204 153.356 147.238L153.427 147.273L153.595 147.273C153.625 147.284 153.656 147.291 153.688 147.295C153.742 147.289 153.797 147.294 153.849 147.309C153.88 147.323 153.885 147.364 153.918 147.383C153.952 147.402 153.963 147.399 153.982 147.411C154.001 147.423 153.997 147.461 154.025 147.48C154.054 147.499 154.063 147.48 154.077 147.513C154.092 147.546 154.077 147.539 154.089 147.546C154.101 147.553 154.163 147.565 154.189 147.572L154.26 147.613C154.277 147.613 154.301 147.613 154.317 147.625C154.365 147.655 154.416 147.68 154.469 147.698C154.509 147.698 154.562 147.698 154.602 147.72C154.642 147.741 154.673 147.753 154.714 147.76L154.856 147.76C154.877 147.76 154.896 147.777 154.92 147.781L155.051 147.781C155.069 147.787 155.088 147.792 155.108 147.796C155.127 147.815 155.139 147.855 155.146 147.855C155.203 147.869 155.264 147.855 155.319 147.855C155.374 147.855 155.397 147.905 155.44 147.914L155.502 147.914C155.522 147.918 155.542 147.923 155.561 147.929C155.583 147.929 155.604 147.929 155.625 147.914L155.888 147.914C155.986 147.931 156.078 148.002 156.176 148.019C156.207 148.019 156.237 147.995 156.268 147.99C156.299 147.986 156.337 148.005 156.373 147.99C156.33 148.021 156.247 147.95 156.185 147.907L156.186 147.907ZM142.656 142.332C142.686 142.332 142.715 142.356 142.746 142.361L142.881 142.361L142.917 142.38L143.033 142.38C143.081 142.38 143.128 142.38 143.175 142.399C143.215 142.406 143.254 142.419 143.289 142.439C143.313 142.453 143.32 142.472 143.342 142.482C143.449 142.529 143.565 142.548 143.672 142.586C143.724 142.605 143.776 142.667 143.828 142.686C143.835 142.673 143.844 142.661 143.854 142.65C143.89 142.65 143.916 142.634 143.954 142.627L144.063 142.627C144.128 142.622 144.193 142.622 144.258 142.627L144.348 142.627C144.37 142.627 144.389 142.648 144.41 142.653L144.472 142.653C144.514 142.653 144.484 142.764 144.557 142.8C144.608 142.822 144.66 142.839 144.714 142.85C144.733 142.85 144.747 142.869 144.766 142.871C144.785 142.874 144.861 142.871 144.904 142.871C144.924 142.881 144.944 142.892 144.963 142.904L145.011 142.916C145.011 142.888 145.061 142.819 145.103 142.812C145.157 142.803 145.211 142.803 145.265 142.812C145.437 142.795 145.608 142.86 145.725 142.988C145.716 143.028 145.716 143.07 145.725 143.111C145.75 143.113 145.775 143.118 145.799 143.125C145.815 143.149 145.834 143.17 145.853 143.194C145.872 143.218 145.96 143.239 146.003 143.263L146.072 143.332L146.176 143.372C146.233 143.403 146.267 143.443 146.321 143.453L146.409 143.453C146.433 143.453 146.442 143.422 146.461 143.417L146.544 143.417L146.57 143.398L146.661 143.398C146.675 143.398 146.68 143.382 146.694 143.379L146.957 143.379L146.998 143.401L147.033 143.401C147.085 143.397 147.137 143.401 147.188 143.413C147.207 143.413 147.216 143.434 147.233 143.441C147.25 143.443 147.268 143.443 147.285 143.441L147.337 143.47C147.358 143.468 147.378 143.468 147.399 143.47L147.418 143.484L147.594 143.484C147.635 143.496 147.675 143.515 147.71 143.541C147.731 143.555 147.731 143.579 147.755 143.588L147.871 143.588C147.905 143.596 147.939 143.606 147.971 143.619C148.016 143.638 148.031 143.7 148.05 143.731L148.135 143.823C148.169 143.895 148.227 143.952 148.299 143.985C148.366 143.992 148.434 143.985 148.498 143.963L148.569 143.963C148.591 143.963 148.622 143.949 148.648 143.949C148.687 143.947 148.727 143.947 148.767 143.949L148.928 143.949C148.956 143.949 148.983 143.978 149.011 143.985L149.135 143.985C149.182 143.985 149.222 144.011 149.272 144.02L149.4 144.02C149.45 144.032 149.481 144.075 149.533 144.101C149.582 144.13 149.634 144.153 149.688 144.17L149.74 144.17C149.764 144.17 149.778 144.196 149.802 144.208C149.825 144.22 149.937 144.248 149.949 144.248L149.989 144.229C150.024 144.227 150.058 144.22 150.091 144.208L150.129 144.179C150.151 144.179 150.179 144.179 150.2 144.165C150.222 144.151 150.253 144.103 150.284 144.094C150.314 144.084 150.343 144.094 150.369 144.094C150.395 144.094 150.39 144.077 150.402 144.075L150.694 144.075C150.718 144.075 150.735 144.099 150.758 144.103L151.053 144.103C151.136 144.118 151.212 144.165 151.29 144.182C151.369 144.198 151.407 144.182 151.461 144.182C151.516 144.182 151.509 144.201 151.535 144.206C151.561 144.21 151.559 144.206 151.568 144.206C151.582 144.215 151.594 144.226 151.606 144.239C151.643 144.26 151.685 144.271 151.727 144.272C151.758 144.305 151.753 144.324 151.772 144.355C151.807 144.353 151.842 144.353 151.877 144.355C151.9 144.355 151.915 144.388 151.938 144.403C151.957 144.408 151.974 144.415 151.991 144.424C152.031 144.401 152.079 144.395 152.124 144.407C152.219 144.407 152.325 144.386 152.416 144.476C152.42 144.524 152.42 144.571 152.416 144.619C152.507 144.669 152.61 144.696 152.715 144.697C152.824 144.671 152.937 144.664 153.049 144.676L153.144 144.676L153.194 144.702L153.282 144.702L153.463 144.737L153.572 144.737C153.598 144.737 153.615 144.766 153.641 144.775L153.676 144.775C153.7 144.775 153.709 144.797 153.733 144.809C153.773 144.822 153.813 144.83 153.854 144.835L153.923 144.866L154.194 144.866C154.213 144.887 154.217 144.913 154.239 144.927C154.271 144.942 154.304 144.955 154.339 144.965C154.374 144.987 154.369 145.027 154.405 145.044C154.441 145.06 154.476 145.044 154.505 145.077C154.533 145.11 154.517 145.098 154.519 145.105C154.558 145.15 154.599 145.192 154.642 145.231L154.676 145.231L154.747 145.264L154.908 145.264C154.934 145.273 154.96 145.284 154.984 145.295L155.18 145.295C155.219 145.304 155.258 145.31 155.298 145.312C155.319 145.31 155.339 145.31 155.36 145.312C155.391 145.323 155.423 145.329 155.455 145.331C155.502 145.327 155.55 145.327 155.597 145.331L155.638 145.331C155.66 145.327 155.682 145.327 155.704 145.331C155.759 145.331 155.809 145.366 155.861 145.374C155.913 145.381 155.901 145.374 155.92 145.374L156.072 145.404L156.113 145.404C156.152 145.407 156.191 145.412 156.229 145.421C156.204 145.41 156.18 145.395 156.158 145.378C156.12 145.357 156.077 145.34 156.034 145.321C155.992 145.302 155.994 145.321 155.975 145.307C155.88 145.267 155.797 145.212 155.702 145.172C155.607 145.131 155.526 145.115 155.443 145.077C155.419 145.063 155.41 145.046 155.384 145.032C155.342 145.008 155.298 144.986 155.253 144.968C155.213 144.951 155.158 144.944 155.118 144.932C155.037 144.911 154.971 144.877 154.88 144.863L154.831 144.863C154.712 144.861 154.594 144.844 154.479 144.811C154.401 144.778 154.344 144.721 154.268 144.68C154.192 144.64 154.109 144.6 154.03 144.555L153.964 144.498C153.916 144.467 153.866 144.439 153.814 144.414C153.746 144.39 153.676 144.37 153.606 144.355C153.579 144.355 153.558 144.336 153.532 144.331C153.444 144.315 153.349 144.312 153.261 144.291C153.135 144.258 153.024 144.141 152.891 144.113C152.758 144.084 152.691 144.113 152.597 144.096C152.54 144.096 152.494 144.051 152.437 144.035C152.38 144.018 152.3 144.008 152.236 143.989C152.172 143.97 152.041 143.835 151.941 143.807C151.891 143.792 151.837 143.792 151.785 143.783C151.732 143.773 151.609 143.738 151.523 143.716C151.438 143.695 151.286 143.636 151.167 143.605C151.144 143.605 151.125 143.581 151.101 143.574L150.811 143.508C150.683 143.479 150.574 143.334 150.443 143.256C150.417 143.242 150.403 143.22 150.377 143.211C150.296 143.182 150.206 143.149 150.123 143.113C150.068 143.081 150.011 143.054 149.952 143.033C149.814 142.995 149.672 142.992 149.531 142.954C149.439 142.931 149.356 142.869 149.261 142.843C149.155 142.821 149.051 142.791 148.95 142.753C148.886 142.715 148.819 142.683 148.75 142.655C148.693 142.639 148.625 142.679 148.565 142.686L148.235 142.686C148.154 142.669 148.08 142.615 147.997 142.591C147.914 142.567 147.86 142.577 147.796 142.56C147.689 142.534 147.589 142.487 147.482 142.465L147.254 142.465L147.017 142.418L146.988 142.418C146.963 142.421 146.937 142.426 146.912 142.432L146.573 142.432C146.494 142.418 146.423 142.382 146.335 142.361C146.257 142.341 146.178 142.326 146.098 142.316L146.055 142.316C145.977 142.306 145.897 142.301 145.818 142.301L145.742 142.301C145.697 142.286 145.651 142.277 145.604 142.273C145.502 142.285 145.41 142.323 145.307 142.342C145.21 142.351 145.113 142.351 145.015 142.342L144.866 142.342C144.716 142.316 144.576 142.214 144.427 142.188C144.379 142.188 144.317 142.235 144.268 142.254C144.199 142.281 144.127 142.297 144.054 142.301L143.907 142.301C143.808 142.302 143.71 142.296 143.612 142.282L143.529 142.282L143.19 142.271C143.083 142.252 142.983 142.209 142.876 142.19C142.835 142.188 142.794 142.194 142.755 142.206L142.639 142.206C142.573 142.222 142.507 142.233 142.439 142.24C142.463 142.253 142.489 142.264 142.515 142.271L142.656 142.332ZM154.908 149.895L154.853 149.895L154.782 149.872C154.748 149.857 154.727 149.834 154.691 149.817C154.656 149.8 154.654 149.817 154.639 149.803L154.563 149.748C154.535 149.732 154.497 149.717 154.466 149.698L154.402 149.644L154.264 149.558C154.246 149.542 154.226 149.527 154.205 149.513C154.155 149.507 154.105 149.507 154.055 149.513L153.929 149.513C153.884 149.517 153.838 149.517 153.792 149.513C153.725 149.495 153.659 149.474 153.595 149.449C153.449 149.387 153.312 149.307 153.186 149.212C153.139 149.174 153.099 149.128 153.068 149.076C153.017 149.009 152.956 148.951 152.887 148.903C152.842 148.882 152.794 148.867 152.745 148.858C152.666 148.836 152.598 148.803 152.507 148.789L152.431 148.789C152.367 148.788 152.304 148.776 152.244 148.753C152.22 148.738 152.198 148.721 152.177 148.701C152.13 148.673 152.073 148.625 152.023 148.592L151.954 148.53C151.893 148.498 151.829 148.469 151.764 148.445C151.744 148.432 151.724 148.421 151.702 148.411C151.651 148.402 151.598 148.402 151.546 148.411L151.071 148.411C150.969 148.395 150.872 148.362 150.767 148.34C150.717 148.34 150.663 148.34 150.613 148.321C150.563 148.302 150.475 148.252 150.401 148.233C150.273 148.2 150.146 148.161 150.022 148.115C149.917 148.055 149.809 148.001 149.699 147.953C149.599 147.926 149.499 147.904 149.397 147.887L149.295 147.887C149.202 147.875 149.112 147.851 149.024 147.818C148.946 147.785 148.863 147.742 148.787 147.702L148.73 147.661C148.678 147.638 148.609 147.621 148.557 147.595C148.505 147.569 148.443 147.521 148.374 147.493C148.355 147.493 148.326 147.493 148.305 147.476L148.267 147.455C148.11 147.419 147.942 147.455 147.792 147.436C147.731 147.424 147.678 147.395 147.617 147.379L147.472 147.348C147.348 147.324 147.22 147.348 147.099 147.322C147.023 147.308 146.954 147.27 146.878 147.251C146.802 147.232 146.741 147.234 146.674 147.217C146.56 147.194 146.456 147.127 146.342 147.096C146.228 147.065 146.128 147.096 146.024 147.061C145.992 147.045 145.961 147.028 145.931 147.008C145.857 146.974 145.785 146.935 145.715 146.892L145.653 146.842C145.572 146.787 145.487 146.74 145.397 146.702C145.2 146.633 145 146.645 144.806 146.595C144.67 146.54 144.538 146.474 144.411 146.401C144.21 146.313 143.994 146.287 143.792 146.199C143.635 146.13 143.49 145.938 143.331 145.869C143.24 145.843 143.147 145.822 143.053 145.807C142.978 145.786 142.909 145.717 142.833 145.686L142.811 145.686C142.745 145.662 142.695 145.622 142.631 145.603C142.567 145.584 142.512 145.581 142.458 145.563C142.458 145.589 142.441 145.612 142.458 145.641C142.5 145.647 142.54 145.665 142.572 145.693C142.572 145.707 142.572 145.729 142.586 145.743C142.6 145.757 142.624 145.783 142.631 145.807C142.638 145.831 142.631 145.857 142.648 145.881L142.697 145.942C142.712 145.968 142.697 145.983 142.721 146.014C142.783 146.008 142.846 146.008 142.909 146.014C142.942 146.049 142.93 146.073 142.959 146.106C143.005 146.115 143.05 146.131 143.091 146.154L143.148 146.208C143.175 146.208 143.208 146.208 143.236 146.239C143.265 146.27 143.253 146.296 143.286 146.313C143.334 146.336 143.383 146.355 143.433 146.37C143.449 146.38 143.466 146.389 143.483 146.396C143.533 146.396 143.604 146.377 143.652 146.396C143.699 146.415 143.678 146.429 143.683 146.436C143.687 146.443 143.78 146.531 143.787 146.534C143.794 146.536 143.861 146.557 143.892 146.576L143.946 146.638L144.051 146.681C144.091 146.702 144.119 146.757 144.16 146.776C144.2 146.795 144.217 146.776 144.241 146.799C144.264 146.823 144.281 146.873 144.319 146.892L144.388 146.911C144.411 146.911 144.428 146.942 144.452 146.951C144.489 146.962 144.527 146.971 144.566 146.977C144.623 146.992 144.682 147.032 144.737 147.044C144.791 147.056 144.817 147.044 144.853 147.058C144.889 147.072 144.884 147.072 144.903 147.075C144.922 147.077 144.965 147.075 144.996 147.075C145.026 147.075 145.012 147.089 145.026 147.096C145.047 147.101 145.067 147.105 145.088 147.108L145.14 147.134C145.19 147.142 145.238 147.155 145.285 147.172C145.311 147.186 145.309 147.21 145.335 147.227C145.361 147.243 145.385 147.227 145.399 147.26C145.42 147.304 145.451 147.342 145.489 147.372C145.524 147.389 145.56 147.405 145.596 147.419C145.637 147.428 145.68 147.433 145.722 147.433C145.767 147.433 145.807 147.469 145.855 147.481C145.914 147.489 145.973 147.501 146.031 147.519C146.104 147.55 146.164 147.642 146.23 147.706C146.277 147.7 146.324 147.7 146.37 147.706C146.4 147.721 146.431 147.733 146.463 147.744L146.57 147.744C146.603 147.744 146.634 147.797 146.665 147.813C146.695 147.83 146.743 147.832 146.776 147.849C146.809 147.865 146.807 147.906 146.831 147.925C146.858 147.937 146.887 147.947 146.916 147.953L146.99 148.003C147.022 148.02 147.056 148.034 147.092 148.043L147.168 148.043C147.273 148.036 147.379 148.052 147.477 148.091C147.495 148.091 147.5 148.129 147.507 148.138L147.617 148.243C147.709 148.3 147.816 148.307 147.906 148.366L147.956 148.414C147.972 148.421 147.989 148.428 148.006 148.433C148.021 148.446 148.033 148.462 148.042 148.48C148.067 148.503 148.095 148.524 148.125 148.542L148.153 148.542C148.197 148.547 148.24 148.547 148.284 148.542L148.583 148.542C148.621 148.542 148.642 148.58 148.683 148.601C148.703 148.608 148.725 148.613 148.747 148.616C148.77 148.616 148.787 148.637 148.808 148.639L148.977 148.639C149.046 148.655 149.113 148.68 149.176 148.713C149.217 148.722 149.256 148.736 149.293 148.756L149.307 148.756C149.366 148.77 149.43 148.756 149.487 148.756C149.628 148.77 149.765 148.805 149.896 148.858L149.936 148.896C149.952 148.903 149.969 148.909 149.986 148.912L150.043 148.962C150.06 148.962 150.086 148.962 150.1 148.976C150.114 148.991 150.133 149.022 150.14 149.033C150.161 149.048 150.182 149.062 150.204 149.074C150.223 149.088 150.235 149.126 150.261 149.143C150.287 149.159 150.333 149.155 150.366 149.178L150.418 149.25C150.442 149.26 150.466 149.267 150.492 149.271L150.53 149.292L150.71 149.292L150.75 149.314C150.8 149.325 150.872 149.314 150.928 149.325C150.945 149.325 150.952 149.342 150.969 149.349C150.99 149.354 151.011 149.358 151.033 149.361C151.066 149.361 151.09 149.39 151.123 149.397L151.175 149.397C151.232 149.397 151.28 149.397 151.337 149.418L151.42 149.418C151.448 149.418 151.472 149.47 151.503 149.485C151.574 149.521 151.649 149.549 151.726 149.568L151.762 149.584L151.873 149.551L152.137 149.551C152.17 149.558 152.201 149.57 152.23 149.587C152.3 149.617 152.376 149.63 152.453 149.625C152.49 149.623 152.528 149.617 152.564 149.608C152.596 149.592 152.628 149.578 152.662 149.568L153.03 149.568C153.085 149.587 153.139 149.611 153.191 149.639C153.23 149.65 153.268 149.664 153.305 149.679L153.357 149.727C153.408 149.76 153.463 149.787 153.521 149.805L154.096 149.805L154.138 149.829C154.153 149.83 154.169 149.83 154.184 149.829L154.252 149.86L154.419 149.86C154.471 149.86 154.495 149.895 154.537 149.905L154.668 149.905C154.696 149.909 154.724 149.917 154.751 149.926L154.775 149.943C154.839 149.964 154.915 149.921 154.981 149.967L154.96 149.943C154.943 149.943 154.929 149.907 154.908 149.895L154.908 149.895Z" transform="translate(50.296875 48)" id="Shape" fill="#FFFFFF" fill-rule="evenodd" stroke="none" />
    </g>
  </g>
</svg>