<?xml version="1.0" encoding="utf-8"?>
<svg width="256px" height="256px" viewBox="0 0 256 256" version="1.1" xmlns:xlink="http://www.w3.org/1999/xlink" xmlns="http://www.w3.org/2000/svg">
  <defs>
    <rect width="256" height="256" id="artboard_1" />
    <clipPath id="clip_1">
      <use xlink:href="#artboard_1" clip-rule="evenodd" />
    </clipPath>
  </defs>
  <g id="carla-3" clip-path="url(#clip_1)">
    <use xlink:href="#artboard_1" stroke="none" fill="#FFFFFF" fill-opacity="0" />
    <g id="carlajs" fill="#FFFFFF" transform="translate(0 166.6875)">
      <path d="M142.673 16.9844Q144.149 16.9844 144.149 18.8711Q144.149 20.5527 142.365 26.8691Q141.237 30.8477 140.622 35.6465Q140.007 40.4453 140.007 43.1729Q140.007 46.5566 140.437 49.8994Q140.519 50.5352 140.519 50.8223Q140.519 51.8477 139.822 52.5859Q139.125 53.3242 138.345 53.3242Q137.258 53.3242 136.838 51.9707Q136.418 50.6172 136.418 47.6025Q136.418 40.7324 138.069 30.5811Q139.719 20.4297 140.694 18.707Q141.668 16.9844 142.673 16.9844ZM177.884 18.543L177.946 18.543Q178.52 18.543 179.669 18.9531Q180.817 19.3633 181.176 19.6401Q181.535 19.917 181.535 20.5732Q181.535 21.8447 180.366 22.7983Q179.197 23.752 178.623 23.752Q177.638 23.752 176.9 22.8906Q176.162 22.0293 176.162 21.168Q176.162 18.9531 177.884 18.543ZM192.732 43.9727Q196.013 45.6748 196.013 47.0078Q195.398 48.1357 192.794 48.8945Q190.189 49.6533 187.913 49.6533Q187.646 49.6533 186.805 49.4482Q185.944 49.2432 185.636 49.2432Q184.878 49.2432 184.129 49.6123Q183.381 49.9814 183.381 50.7607Q183.381 53.0166 186.703 53.0166Q190.64 53.0166 194.967 51.2427Q199.295 49.4688 199.295 46.3311Q199.295 44.6289 197.91 43.3677Q196.526 42.1064 194.209 40.999Q191.338 39.6455 190.23 38.7124Q189.123 37.7793 189.123 36.6309Q189.123 34.7441 192.26 33.2471Q195.398 31.75 196.424 31.75Q196.629 31.75 197.285 32.0371Q197.941 32.3447 198.167 32.3447Q198.474 32.3447 199.018 31.8936Q199.561 31.4424 199.561 30.8066Q199.561 29.3916 198.813 28.8174Q198.064 28.2432 196.403 28.2432Q193.819 28.2432 189.728 30.9297Q185.636 33.6162 185.636 37.6973Q185.636 39.2764 187.103 40.5581Q188.569 41.8398 192.732 43.9727ZM73.7663 52.873Q70.6901 52.873 69.0393 51.1094Q67.3884 49.3457 67.3884 46.167Q67.3884 40.8145 71.6335 34.8774Q75.8786 28.9404 79.529 28.9404Q81.1901 28.9404 82.3898 30.7349Q83.5896 32.5293 83.5896 34.5391Q83.5896 35.749 83.0666 36.6206Q82.5437 37.4922 82.0105 37.4922Q80.821 37.4922 80.3288 35.0928Q79.7751 32.5088 78.7292 32.5088Q76.5964 32.5088 73.6843 37.5742Q70.7722 42.6396 70.7722 46.126Q70.7722 49.6123 74.7302 49.6123Q77.7448 49.6123 81.8259 46.7822Q83.2614 45.7773 83.9382 45.7773Q84.6355 45.7773 84.6355 46.5771Q84.6355 48.1357 80.9646 50.5044Q77.2937 52.873 73.7663 52.873ZM103.277 44.2393Q100.406 48.0947 97.5964 50.0225Q94.7868 51.9502 92.4489 51.9502Q90.8698 51.9502 89.7214 50.6172Q88.573 49.2842 88.573 47.1924Q88.573 41.7988 93.3923 35.5747Q98.2116 29.3506 102.969 29.3506Q104.692 29.3506 105.533 31.3193Q105.8 31.9756 106.374 31.9756Q108.014 31.9756 108.014 33.2471Q108.014 33.8828 107.809 34.9902Q106.702 41.04 106.702 43.5215Q106.702 48.4844 108.589 49.4688Q109.491 49.9609 109.491 50.6787Q109.491 51.3145 108.609 51.9604Q107.727 52.6064 106.907 52.6064Q105.328 52.6064 104.302 50.4326Q103.277 48.2588 103.277 44.2393ZM155.654 50.0225Q158.464 48.0947 161.335 44.2393Q161.335 48.2588 162.36 50.4326Q163.385 52.6064 164.965 52.6064Q165.785 52.6064 166.667 51.9604Q167.549 51.3145 167.549 50.6787Q167.549 49.9609 166.646 49.4688Q164.759 48.4844 164.759 43.5215Q164.759 41.04 165.867 34.9902Q166.072 33.8828 166.072 33.2471Q166.072 31.9756 164.431 31.9756Q163.857 31.9756 163.591 31.3193Q162.75 29.3506 161.027 29.3506Q156.269 29.3506 151.45 35.5747Q146.631 41.7988 146.631 47.1924Q146.631 49.2842 147.779 50.6172Q148.927 51.9502 150.507 51.9502Q152.844 51.9502 155.654 50.0225ZM169.579 64.7266Q167.138 64.7266 164.852 62.686Q162.565 60.6455 162.565 59.1689Q162.565 58.7588 162.852 58.3589Q163.139 57.959 163.283 57.959Q163.426 57.959 163.919 58.3691Q167.138 61.1992 169.107 61.1992Q170.727 61.1992 171.896 59.6509Q173.065 58.1025 173.578 53.9087Q174.091 49.7148 174.542 40.876Q174.849 34.498 175.085 32.7754Q175.321 31.0527 176.059 30.3657Q176.798 29.6787 177.946 29.6787Q178.541 29.6787 179.064 30.1401Q179.587 30.6016 179.587 31.2578Q179.587 31.627 179.443 32.2627Q177.946 38.7432 177.495 49.1406Q177.208 55.416 176.326 58.4307Q175.444 61.4453 173.609 63.0859Q171.773 64.7266 169.579 64.7266ZM118.74 42.5371Q118.453 43.1934 118.248 43.5625L118.248 43.0088L118.268 42.25Q118.473 38.4971 118.678 37.6152Q118.842 36.8564 118.904 36.1592Q118.986 35.5439 119.458 33.9238Q119.868 32.4678 119.868 31.668Q119.868 31.1143 119.488 30.6323Q119.109 30.1504 118.35 30.1504Q117.571 30.1504 116.904 30.6836Q116.238 31.2168 116.023 31.832Q115.807 32.4473 115.664 34.0264Q115.52 35.4619 115.459 35.8516Q115.09 38.2305 114.967 42.1064Q114.864 45.3877 114.864 46.3516Q114.864 49.8994 115.315 51.3965Q115.766 52.8936 116.771 52.8936Q117.817 52.8936 118.391 52.3809Q118.966 51.8682 119.171 50.2686Q119.991 44.0547 123.764 38.8867Q127.538 33.7188 129.671 33.7188Q130.47 33.7188 131.209 34.4775Q131.926 35.2363 132.788 35.2363Q133.608 35.2363 134.008 34.7236Q134.408 34.2109 134.408 33.5752Q134.408 32.1396 133.28 31.063Q132.152 29.9863 130.368 29.9863Q129.486 29.9863 128.543 30.3247Q127.599 30.6631 126.441 31.5244Q125.282 32.3857 123.877 34.0469Q122.472 35.708 121.303 37.5229Q120.134 39.3379 118.74 42.5371ZM102.026 32.6934Q99.319 32.6934 95.7302 37.769Q92.1413 42.8447 92.1413 46.1875Q92.1413 48.5459 93.6999 48.5459Q95.9558 48.5459 99.9548 43.9932Q103.954 39.4404 103.954 35.626Q103.954 32.6934 102.026 32.6934ZM153.788 37.769Q157.377 32.6934 160.084 32.6934Q162.011 32.6934 162.011 35.626Q162.011 39.4404 158.012 43.9932Q154.013 48.5459 151.758 48.5459Q150.199 48.5459 150.199 46.1875Q150.199 42.8447 153.788 37.769Z" />
    </g>
    <path d="M146.243 138.494L146.167 138.427C146.076 138.378 145.965 138.358 145.869 138.309C145.838 138.291 145.823 138.263 145.789 138.24L145.656 138.147C145.639 138.136 145.622 138.123 145.607 138.109C145.556 138.085 145.489 138.067 145.436 138.042C145.383 138.018 145.278 137.954 145.196 137.92C145.151 137.902 145.096 137.902 145.054 137.885C144.967 137.849 144.885 137.785 144.8 137.749C144.732 137.726 144.662 137.712 144.591 137.707C144.547 137.707 144.507 137.682 144.46 137.676C144.413 137.669 144.302 137.656 144.227 137.638C144.151 137.62 144.087 137.582 144.004 137.564C143.912 137.552 143.821 137.534 143.731 137.511C143.64 137.48 143.557 137.411 143.464 137.387C143.371 137.362 143.275 137.387 143.184 137.364C143.093 137.342 142.986 137.316 142.886 137.298C142.811 137.292 142.737 137.279 142.664 137.26C142.526 137.182 142.397 137.09 142.277 136.987L142.155 136.86C142.119 136.835 142.081 136.806 142.046 136.784L141.988 136.72C141.938 136.655 141.876 136.6 141.806 136.557C141.739 136.537 141.67 136.523 141.601 136.513C141.49 136.484 141.379 136.409 141.279 136.38C141.179 136.351 141.077 136.36 140.977 136.342C140.954 136.342 140.934 136.326 140.91 136.322C140.885 136.317 140.801 136.309 140.748 136.295C140.694 136.282 140.683 136.262 140.65 136.262C140.635 136.261 140.62 136.261 140.605 136.262L140.485 136.262C140.411 136.268 140.337 136.268 140.263 136.262C140.203 136.251 140.152 136.22 140.094 136.206C139.941 136.188 139.791 136.148 139.649 136.086C139.587 136.053 139.547 135.982 139.483 135.939C139.417 135.886 139.341 135.846 139.26 135.822C139.231 135.822 139.2 135.839 139.171 135.844C139.143 135.848 139.078 135.857 139.031 135.862L138.729 135.862L138.576 135.826L138.48 135.826C138.408 135.812 138.34 135.783 138.28 135.742C138.249 135.716 138.221 135.685 138.2 135.65C138.156 135.577 138.09 135.518 138.011 135.484C137.936 135.496 137.861 135.514 137.789 135.537C137.735 135.543 137.682 135.543 137.629 135.537C137.536 135.542 137.442 135.535 137.351 135.517C137.246 135.49 137.146 135.377 137.044 135.33C137.019 135.314 136.991 135.302 136.962 135.295C136.925 135.291 136.889 135.291 136.853 135.295L136.664 135.295C136.538 135.304 136.412 135.304 136.286 135.295C136.199 135.301 136.111 135.301 136.024 135.295C135.972 135.285 135.92 135.272 135.87 135.255C135.848 135.255 135.835 135.23 135.812 135.226C135.79 135.221 135.777 135.226 135.761 135.226C135.72 135.205 135.674 135.191 135.628 135.186C135.583 135.186 135.523 135.228 135.479 135.235C135.427 135.238 135.375 135.238 135.323 135.235C135.249 135.239 135.174 135.235 135.101 135.221L135.048 135.19C135.028 135.185 135.009 135.18 134.99 135.173C134.95 135.151 134.911 135.128 134.874 135.101L134.785 135.026C134.747 134.998 134.704 134.976 134.659 134.961C134.612 134.944 134.556 134.941 134.51 134.928C134.421 134.906 134.339 134.877 134.252 134.859C134.201 134.859 134.141 134.859 134.087 134.846L133.947 134.812L133.878 134.781C133.783 134.759 133.687 134.746 133.592 134.728L133.52 134.728C133.429 134.731 133.338 134.725 133.247 134.712C133.171 134.678 133.101 134.633 133.038 134.579C132.969 134.535 132.894 134.501 132.816 134.477C132.525 134.408 132.231 134.41 131.942 134.361L131.58 134.361C131.513 134.35 131.453 134.321 131.386 134.303C131.348 134.296 131.31 134.291 131.271 134.288C131.226 134.278 131.183 134.265 131.14 134.25C131.14 134.27 131.253 134.328 131.277 134.341C131.302 134.354 131.364 134.368 131.402 134.383C131.498 134.427 131.598 134.462 131.7 134.49L131.74 134.49C131.762 134.49 131.78 134.512 131.802 134.517C131.824 134.521 131.913 134.517 131.964 134.537C132.016 134.557 132.029 134.566 132.064 134.572C132.1 134.579 132.149 134.572 132.189 134.572C132.267 134.588 132.345 134.619 132.411 134.639C132.436 134.639 132.447 134.663 132.471 134.677C132.496 134.69 132.52 134.697 132.542 134.708C132.565 134.719 132.605 134.768 132.642 134.784C132.714 134.815 132.8 134.835 132.865 134.861C132.909 134.884 132.955 134.903 133.003 134.917L133.054 134.917C133.078 134.927 133.102 134.939 133.125 134.952L133.252 134.952C133.311 134.974 133.367 135.005 133.416 135.046C133.449 135.066 133.452 135.104 133.476 135.121C133.508 135.137 133.542 135.15 133.576 135.159C133.594 135.159 133.596 135.195 133.605 135.197C133.614 135.199 133.632 135.181 133.649 135.179L133.721 135.179C133.734 135.179 133.738 135.164 133.752 135.161L134.058 135.161C134.114 135.161 134.19 135.144 134.243 135.197C134.242 135.213 134.248 135.229 134.259 135.241C134.298 135.238 134.337 135.238 134.376 135.241L134.419 135.268L134.516 135.301L134.574 135.301C134.637 135.301 134.699 135.314 134.757 135.339C134.788 135.359 134.77 135.393 134.799 135.413L134.823 135.413C134.843 135.424 134.841 135.446 134.845 135.457C134.85 135.468 134.883 135.475 134.897 135.493C134.91 135.51 134.921 135.542 134.934 135.564L135.008 135.637C135.087 135.629 135.166 135.629 135.246 135.637C135.266 135.662 135.268 135.693 135.292 135.706C135.317 135.719 135.326 135.706 135.337 135.735C135.348 135.764 135.337 135.762 135.337 135.771C135.375 135.82 135.417 135.865 135.463 135.906C135.527 135.939 135.595 135.964 135.666 135.979C135.686 135.979 135.701 136.002 135.723 136.008C135.746 136.015 135.764 136.008 135.781 136.02C135.799 136.031 135.797 136.033 135.808 136.035C135.864 136.048 135.932 136.022 135.988 136.046C136.044 136.071 136.041 136.131 136.086 136.16C136.121 136.187 136.161 136.208 136.204 136.222C136.239 136.223 136.274 136.218 136.308 136.208C136.371 136.204 136.434 136.204 136.497 136.208L136.586 136.208C136.619 136.208 136.613 136.264 136.65 136.284C136.662 136.285 136.673 136.285 136.684 136.284C136.7 136.29 136.716 136.298 136.731 136.306C136.747 136.311 136.764 136.315 136.782 136.317C136.819 136.317 136.846 136.351 136.882 136.36L137.015 136.36C137.057 136.36 137.091 136.389 137.131 136.4C137.162 136.404 137.192 136.411 137.222 136.422C137.251 136.422 137.275 136.449 137.304 136.457C137.333 136.466 137.42 136.457 137.464 136.473C137.487 136.481 137.509 136.489 137.531 136.5L137.653 136.533C137.675 136.533 137.684 136.555 137.704 136.564C137.734 136.569 137.764 136.578 137.791 136.591L137.838 136.64C137.853 136.651 137.88 136.658 137.891 136.68C137.909 136.728 137.933 136.773 137.962 136.815L137.991 136.815C138.013 136.819 138.036 136.819 138.058 136.815L138.338 136.815C138.387 136.815 138.431 136.853 138.48 136.866C138.504 136.864 138.529 136.864 138.553 136.866C138.598 136.884 138.631 136.922 138.678 136.942C138.725 136.962 138.822 136.987 138.9 137.022C138.978 137.058 138.967 137.087 139.007 137.104C139.047 137.122 139.12 137.133 139.169 137.155C139.218 137.178 139.234 137.213 139.276 137.238C139.318 137.262 139.371 137.273 139.409 137.291C139.447 137.309 139.449 137.34 139.478 137.358C139.508 137.373 139.539 137.385 139.572 137.396C139.585 137.396 139.589 137.411 139.603 137.413C139.656 137.429 139.72 137.413 139.776 137.413C139.792 137.413 139.798 137.431 139.814 137.436C139.873 137.45 139.933 137.456 139.994 137.453L140.023 137.433L140.105 137.433C140.164 137.429 140.224 137.429 140.283 137.433L140.378 137.473C140.398 137.484 140.405 137.5 140.423 137.507C140.486 137.526 140.551 137.542 140.616 137.553C140.647 137.56 140.675 137.576 140.696 137.598C140.707 137.613 140.716 137.645 140.739 137.658C140.762 137.669 140.787 137.678 140.812 137.685L140.874 137.733C140.914 137.751 140.972 137.76 141.012 137.776C141.052 137.791 141.061 137.818 141.088 137.825C141.114 137.831 141.174 137.753 141.203 137.729C141.23 137.735 141.257 137.735 141.283 137.729L141.305 137.713L141.383 137.713C141.415 137.7 141.443 137.68 141.466 137.653C141.466 137.653 141.466 137.633 141.488 137.625C141.529 137.6 141.577 137.589 141.626 137.591L141.848 137.591C141.879 137.591 141.903 137.62 141.935 137.627L142.175 137.627C142.195 137.627 142.21 137.645 142.232 137.649C142.255 137.653 142.315 137.649 142.353 137.649C142.39 137.649 142.381 137.665 142.404 137.671L142.519 137.671L142.553 137.689L142.673 137.689C142.719 137.689 142.77 137.707 142.817 137.702C142.885 137.696 142.954 137.696 143.022 137.702C143.059 137.7 143.096 137.7 143.133 137.702C143.162 137.702 143.186 137.733 143.215 137.74C143.342 137.771 143.466 137.836 143.593 137.867L143.66 137.9L143.817 137.9C143.846 137.91 143.875 137.917 143.904 137.92C143.955 137.915 144.006 137.919 144.055 137.934C144.084 137.947 144.089 137.985 144.12 138.002C144.151 138.02 144.162 138.018 144.18 138.029C144.198 138.04 144.193 138.076 144.22 138.094C144.247 138.111 144.255 138.094 144.269 138.125C144.282 138.156 144.269 138.149 144.28 138.156C144.291 138.163 144.349 138.174 144.373 138.18L144.44 138.218C144.455 138.218 144.478 138.218 144.493 138.229C144.538 138.257 144.586 138.281 144.636 138.298C144.673 138.298 144.722 138.298 144.76 138.318C144.798 138.338 144.827 138.349 144.865 138.356L144.998 138.356C145.018 138.356 145.036 138.371 145.058 138.376L145.18 138.376C145.198 138.381 145.216 138.386 145.234 138.389C145.251 138.407 145.262 138.445 145.269 138.445C145.322 138.458 145.38 138.445 145.431 138.445C145.483 138.445 145.505 138.492 145.545 138.5L145.603 138.5C145.621 138.504 145.64 138.508 145.658 138.514C145.678 138.514 145.698 138.514 145.718 138.5L145.965 138.5C146.056 138.516 146.142 138.583 146.234 138.598C146.262 138.598 146.291 138.576 146.32 138.572C146.349 138.567 146.385 138.585 146.418 138.572C146.378 138.6 146.3 138.534 146.242 138.494L146.243 138.494ZM133.574 133.323C133.603 133.323 133.63 133.345 133.659 133.35L133.786 133.35L133.819 133.368L133.928 133.368C133.972 133.368 134.017 133.368 134.061 133.385C134.099 133.392 134.135 133.405 134.168 133.423C134.19 133.436 134.197 133.454 134.217 133.463C134.317 133.508 134.426 133.525 134.526 133.561C134.575 133.579 134.624 133.637 134.673 133.654C134.679 133.642 134.687 133.631 134.697 133.621C134.73 133.621 134.755 133.605 134.79 133.599L134.893 133.599C134.953 133.594 135.014 133.594 135.075 133.599L135.159 133.599C135.179 133.599 135.197 133.619 135.217 133.623L135.275 133.623C135.315 133.623 135.286 133.728 135.355 133.761C135.402 133.782 135.451 133.797 135.502 133.808C135.52 133.808 135.533 133.825 135.551 133.828C135.568 133.83 135.64 133.828 135.68 133.828C135.699 133.837 135.717 133.847 135.735 133.859L135.78 133.87C135.78 133.843 135.826 133.779 135.866 133.772C135.916 133.764 135.967 133.764 136.017 133.772C136.179 133.756 136.339 133.817 136.449 133.937C136.44 133.975 136.44 134.014 136.449 134.052C136.472 134.054 136.495 134.059 136.518 134.066C136.533 134.088 136.551 134.108 136.569 134.13C136.587 134.152 136.669 134.172 136.709 134.195L136.773 134.259L136.871 134.297C136.924 134.326 136.956 134.363 137.007 134.372L137.089 134.372C137.111 134.372 137.12 134.343 137.138 134.339L137.216 134.339L137.24 134.321L137.325 134.321C137.338 134.321 137.342 134.306 137.356 134.303L137.602 134.303L137.64 134.323L137.674 134.323C137.722 134.32 137.771 134.324 137.818 134.335C137.836 134.335 137.845 134.355 137.86 134.361C137.877 134.363 137.893 134.363 137.909 134.361L137.958 134.388C137.977 134.387 137.997 134.387 138.016 134.388L138.034 134.401L138.198 134.401C138.237 134.413 138.274 134.431 138.307 134.455C138.327 134.468 138.327 134.49 138.349 134.499L138.458 134.499C138.49 134.506 138.521 134.516 138.552 134.528C138.594 134.546 138.607 134.604 138.625 134.632L138.705 134.719C138.737 134.786 138.791 134.839 138.858 134.87C138.921 134.877 138.985 134.87 139.045 134.85L139.112 134.85C139.132 134.85 139.161 134.837 139.185 134.837C139.222 134.835 139.259 134.835 139.296 134.837L139.448 134.837C139.474 134.837 139.499 134.864 139.525 134.87L139.641 134.87C139.685 134.87 139.723 134.895 139.77 134.904L139.89 134.904C139.937 134.915 139.966 134.955 140.014 134.979C140.06 135.006 140.108 135.028 140.159 135.044L140.208 135.044C140.23 135.044 140.243 135.068 140.266 135.079C140.288 135.09 140.392 135.117 140.403 135.117L140.441 135.099C140.474 135.097 140.506 135.09 140.537 135.079L140.572 135.053C140.592 135.053 140.619 135.053 140.639 135.039C140.659 135.026 140.688 134.981 140.717 134.973C140.746 134.964 140.772 134.973 140.797 134.973C140.821 134.973 140.817 134.957 140.828 134.955L141.101 134.955C141.124 134.955 141.139 134.977 141.161 134.981L141.437 134.981C141.515 134.995 141.586 135.039 141.659 135.055C141.733 135.07 141.768 135.055 141.82 135.055C141.871 135.055 141.864 135.073 141.888 135.077C141.913 135.082 141.911 135.077 141.92 135.077C141.932 135.086 141.944 135.097 141.955 135.108C141.99 135.128 142.029 135.138 142.068 135.139C142.097 135.17 142.093 135.188 142.111 135.217C142.143 135.215 142.176 135.215 142.209 135.217C142.231 135.217 142.244 135.248 142.266 135.262C142.283 135.266 142.3 135.273 142.315 135.282C142.353 135.26 142.398 135.255 142.44 135.266C142.529 135.266 142.629 135.246 142.713 135.331C142.718 135.375 142.718 135.42 142.713 135.464C142.799 135.511 142.895 135.536 142.993 135.537C143.096 135.513 143.202 135.506 143.307 135.517L143.396 135.517L143.442 135.542L143.525 135.542L143.693 135.575L143.796 135.575C143.82 135.575 143.836 135.602 143.86 135.611L143.894 135.611C143.916 135.611 143.925 135.631 143.947 135.642C143.984 135.654 144.022 135.662 144.06 135.666L144.125 135.695L144.378 135.695C144.396 135.715 144.4 135.74 144.42 135.753C144.451 135.767 144.482 135.779 144.514 135.788C144.547 135.808 144.543 135.846 144.576 135.862C144.609 135.877 144.643 135.862 144.669 135.893C144.696 135.924 144.68 135.913 144.683 135.92C144.719 135.961 144.758 136 144.798 136.037L144.829 136.037L144.896 136.069L145.047 136.069C145.072 136.077 145.095 136.086 145.118 136.097L145.301 136.097C145.338 136.106 145.375 136.111 145.412 136.113C145.432 136.111 145.451 136.111 145.47 136.113C145.499 136.123 145.529 136.129 145.559 136.131C145.603 136.128 145.648 136.128 145.692 136.131L145.73 136.131C145.751 136.127 145.772 136.127 145.792 136.131C145.844 136.131 145.89 136.164 145.939 136.171C145.988 136.177 145.977 136.171 145.995 136.171L146.137 136.2L146.175 136.2C146.212 136.202 146.248 136.207 146.284 136.215C146.26 136.204 146.238 136.191 146.217 136.175C146.182 136.155 146.142 136.14 146.102 136.122C146.061 136.104 146.064 136.122 146.046 136.109C145.957 136.071 145.879 136.02 145.79 135.982C145.701 135.944 145.626 135.928 145.548 135.893C145.526 135.88 145.517 135.864 145.492 135.851C145.453 135.828 145.412 135.808 145.37 135.791C145.332 135.775 145.281 135.768 145.243 135.757C145.168 135.737 145.106 135.706 145.021 135.693L144.974 135.693C144.863 135.691 144.753 135.674 144.645 135.644C144.572 135.613 144.519 135.559 144.448 135.522C144.376 135.484 144.299 135.446 144.225 135.404L144.163 135.35C144.118 135.322 144.071 135.296 144.023 135.273C143.959 135.25 143.894 135.231 143.827 135.217C143.803 135.217 143.783 135.199 143.758 135.195C143.676 135.179 143.587 135.177 143.505 135.157C143.387 135.126 143.283 135.017 143.158 134.99C143.034 134.964 142.971 134.99 142.883 134.975C142.829 134.975 142.787 134.933 142.734 134.917C142.68 134.901 142.605 134.893 142.545 134.875C142.485 134.857 142.362 134.73 142.269 134.704C142.222 134.69 142.171 134.69 142.122 134.681C142.073 134.672 141.958 134.639 141.878 134.619C141.798 134.599 141.655 134.544 141.544 134.515C141.522 134.515 141.504 134.492 141.482 134.486L141.211 134.423C141.091 134.397 140.989 134.261 140.866 134.188C140.842 134.175 140.829 134.155 140.804 134.146C140.728 134.119 140.644 134.088 140.566 134.054C140.515 134.024 140.462 133.999 140.406 133.979C140.277 133.943 140.144 133.941 140.013 133.906C139.926 133.883 139.848 133.826 139.759 133.801C139.66 133.78 139.563 133.752 139.468 133.717C139.408 133.682 139.346 133.651 139.281 133.625C139.228 133.61 139.163 133.648 139.108 133.654L138.798 133.654C138.723 133.639 138.654 133.588 138.576 133.565C138.498 133.543 138.447 133.552 138.387 133.537C138.287 133.512 138.194 133.468 138.094 133.448L137.88 133.448L137.658 133.403L137.631 133.403C137.607 133.406 137.584 133.411 137.56 133.416L137.242 133.416C137.169 133.403 137.102 133.37 137.02 133.35C136.947 133.331 136.873 133.317 136.798 133.308L136.758 133.308C136.684 133.299 136.61 133.294 136.535 133.294L136.464 133.294C136.423 133.28 136.379 133.271 136.335 133.268C136.24 133.279 136.153 133.314 136.057 133.332C135.967 133.341 135.875 133.341 135.784 133.332L135.644 133.332C135.504 133.308 135.373 133.212 135.233 133.188C135.188 133.188 135.13 133.232 135.084 133.25C135.02 133.275 134.952 133.29 134.884 133.294L134.746 133.294C134.654 133.295 134.562 133.289 134.47 133.276L134.392 133.276L134.075 133.265C133.975 133.248 133.881 133.208 133.781 133.19C133.743 133.188 133.704 133.194 133.668 133.205L133.559 133.205C133.497 133.22 133.435 133.231 133.372 133.236C133.394 133.249 133.418 133.259 133.443 133.265L133.574 133.323ZM145.047 140.307L144.996 140.307L144.929 140.285C144.898 140.271 144.878 140.249 144.845 140.234C144.812 140.218 144.809 140.234 144.796 140.22L144.725 140.169C144.698 140.154 144.663 140.14 144.634 140.122L144.574 140.071L144.445 139.991C144.427 139.976 144.409 139.962 144.389 139.949C144.343 139.944 144.296 139.944 144.249 139.949L144.131 139.949C144.088 139.952 144.045 139.952 144.002 139.949C143.94 139.932 143.878 139.912 143.818 139.889C143.682 139.831 143.553 139.757 143.436 139.667C143.391 139.631 143.354 139.588 143.324 139.54C143.277 139.477 143.22 139.422 143.155 139.378C143.113 139.358 143.068 139.344 143.022 139.336C142.949 139.316 142.884 139.284 142.8 139.271L142.729 139.271C142.669 139.27 142.609 139.259 142.553 139.238C142.531 139.224 142.51 139.207 142.491 139.189C142.446 139.162 142.393 139.118 142.346 139.087L142.282 139.029C142.224 138.998 142.165 138.972 142.104 138.949C142.085 138.937 142.066 138.927 142.046 138.918C141.998 138.909 141.948 138.909 141.899 138.918L141.455 138.918C141.359 138.902 141.268 138.871 141.17 138.851C141.124 138.851 141.072 138.851 141.026 138.833C140.979 138.815 140.897 138.769 140.828 138.751C140.708 138.72 140.589 138.683 140.472 138.64C140.374 138.584 140.273 138.533 140.17 138.489C140.077 138.463 139.983 138.442 139.888 138.426L139.792 138.426C139.705 138.415 139.62 138.393 139.539 138.362C139.465 138.331 139.387 138.291 139.316 138.253L139.263 138.215C139.214 138.193 139.15 138.177 139.101 138.153C139.052 138.128 138.994 138.084 138.929 138.057C138.912 138.057 138.885 138.057 138.865 138.042L138.829 138.022C138.683 137.988 138.525 138.022 138.385 138.004C138.327 137.993 138.278 137.966 138.22 137.951L138.085 137.922C137.969 137.899 137.849 137.922 137.736 137.897C137.665 137.884 137.6 137.848 137.529 137.831C137.458 137.813 137.4 137.815 137.338 137.799C137.231 137.777 137.133 137.715 137.027 137.686C136.92 137.657 136.826 137.686 136.729 137.653C136.699 137.638 136.67 137.622 136.642 137.604C136.573 137.571 136.505 137.535 136.44 137.495L136.382 137.448C136.306 137.397 136.226 137.353 136.142 137.317C135.957 137.253 135.771 137.264 135.588 137.217C135.461 137.165 135.338 137.104 135.219 137.035C135.03 136.952 134.828 136.928 134.639 136.846C134.492 136.781 134.357 136.601 134.208 136.537C134.122 136.512 134.035 136.493 133.948 136.479C133.877 136.459 133.812 136.395 133.741 136.366L133.721 136.366C133.659 136.343 133.612 136.306 133.552 136.288C133.492 136.27 133.441 136.268 133.39 136.25C133.39 136.274 133.374 136.297 133.39 136.323C133.429 136.329 133.466 136.346 133.496 136.372C133.496 136.386 133.496 136.406 133.51 136.419C133.523 136.432 133.545 136.457 133.552 136.479C133.559 136.501 133.552 136.526 133.568 136.548L133.614 136.606C133.628 136.63 133.614 136.643 133.636 136.672C133.695 136.667 133.754 136.667 133.812 136.672C133.843 136.706 133.832 136.728 133.859 136.759C133.902 136.768 133.944 136.783 133.983 136.804L134.037 136.855C134.061 136.855 134.092 136.855 134.119 136.884C134.146 136.912 134.134 136.937 134.166 136.952C134.21 136.974 134.256 136.992 134.303 137.006C134.318 137.016 134.334 137.024 134.35 137.03C134.397 137.03 134.463 137.012 134.508 137.03C134.552 137.048 134.532 137.061 134.537 137.068C134.541 137.075 134.628 137.157 134.635 137.159C134.641 137.161 134.704 137.181 134.732 137.199L134.784 137.257L134.881 137.297C134.919 137.317 134.946 137.368 134.984 137.386C135.021 137.404 135.037 137.386 135.059 137.408C135.081 137.43 135.097 137.477 135.133 137.495L135.197 137.513C135.219 137.513 135.235 137.542 135.257 137.55C135.292 137.561 135.328 137.569 135.364 137.575C135.417 137.588 135.473 137.626 135.524 137.637C135.575 137.648 135.599 137.637 135.633 137.65C135.666 137.664 135.662 137.664 135.679 137.666C135.697 137.668 135.737 137.666 135.766 137.666C135.795 137.666 135.782 137.679 135.795 137.686C135.814 137.691 135.833 137.695 135.853 137.697L135.902 137.722C135.948 137.729 135.993 137.741 136.037 137.757C136.062 137.771 136.06 137.793 136.084 137.808C136.108 137.824 136.131 137.808 136.144 137.839C136.164 137.88 136.193 137.916 136.229 137.944C136.261 137.96 136.294 137.975 136.329 137.988C136.367 137.997 136.407 138.002 136.446 138.002C136.489 138.002 136.526 138.035 136.571 138.046C136.627 138.054 136.682 138.065 136.735 138.082C136.804 138.111 136.86 138.197 136.922 138.257C136.966 138.252 137.01 138.252 137.053 138.257C137.082 138.271 137.11 138.283 137.14 138.293L137.24 138.293C137.271 138.293 137.3 138.342 137.329 138.357C137.358 138.373 137.402 138.375 137.433 138.391C137.465 138.406 137.462 138.444 137.485 138.462C137.51 138.473 137.537 138.482 137.565 138.489L137.633 138.535C137.664 138.551 137.696 138.564 137.729 138.573L137.8 138.573C137.899 138.566 137.997 138.581 138.089 138.617C138.107 138.617 138.111 138.653 138.118 138.662L138.22 138.76C138.307 138.813 138.407 138.82 138.492 138.875L138.538 138.92C138.553 138.927 138.569 138.933 138.585 138.938C138.599 138.95 138.61 138.965 138.618 138.982C138.643 139.003 138.669 139.023 138.696 139.04L138.723 139.04C138.763 139.044 138.804 139.044 138.845 139.04L139.125 139.04C139.161 139.04 139.181 139.075 139.218 139.095C139.238 139.102 139.258 139.106 139.278 139.109C139.301 139.109 139.316 139.129 139.336 139.131L139.494 139.131C139.559 139.146 139.622 139.169 139.681 139.2C139.719 139.208 139.755 139.222 139.79 139.24L139.803 139.24C139.859 139.253 139.919 139.24 139.972 139.24C140.103 139.254 140.232 139.286 140.354 139.335L140.392 139.371C140.407 139.378 140.423 139.383 140.439 139.387L140.492 139.433C140.508 139.433 140.532 139.433 140.546 139.447C140.559 139.46 140.577 139.489 140.583 139.5C140.603 139.514 140.623 139.527 140.643 139.538C140.661 139.551 140.672 139.587 140.697 139.602C140.721 139.618 140.763 139.613 140.795 139.636L140.843 139.702C140.865 139.712 140.889 139.719 140.912 139.722L140.948 139.742L141.117 139.742L141.155 139.762C141.201 139.773 141.268 139.762 141.321 139.773C141.337 139.773 141.344 139.789 141.359 139.796C141.379 139.8 141.399 139.804 141.419 139.807C141.45 139.807 141.473 139.833 141.504 139.84L141.553 139.84C141.606 139.84 141.65 139.84 141.704 139.86L141.782 139.86C141.808 139.86 141.83 139.909 141.859 139.922C141.926 139.956 141.996 139.983 142.068 140L142.102 140.016L142.206 139.985L142.453 139.985C142.484 139.991 142.513 140.002 142.54 140.018C142.605 140.047 142.677 140.059 142.749 140.054C142.784 140.052 142.819 140.046 142.853 140.038C142.883 140.023 142.913 140.01 142.944 140L143.289 140C143.341 140.019 143.391 140.041 143.44 140.067C143.476 140.077 143.512 140.09 143.547 140.105L143.596 140.149C143.643 140.181 143.695 140.205 143.749 140.222L144.287 140.222L144.327 140.245C144.341 140.246 144.355 140.246 144.369 140.245L144.434 140.274L144.589 140.274C144.638 140.274 144.661 140.307 144.701 140.316L144.823 140.316C144.849 140.32 144.875 140.327 144.901 140.336L144.923 140.351C144.983 140.371 145.054 140.331 145.116 140.374L145.096 140.351C145.081 140.351 145.067 140.318 145.047 140.307L145.047 140.307ZM121.354 141.019C120.26 132.518 108.565 134.932 108.565 134.932C92.8284 127.596 88.7047 118.462 88.7047 118.462C86.5173 114.338 89.2938 114.845 89.2938 114.845C92.1548 116.528 114.287 128.392 114.287 128.392C118.157 131.424 123.459 134.79 123.459 134.79C126.487 135.717 126.825 131.845 126.825 131.845C128.603 135.297 129.602 133.361 129.602 133.361C130.864 131.593 130.191 128.648 130.191 128.648C127.499 123.599 121.943 124.524 121.943 124.524L116.475 121.579C101.158 113.162 97.539 106.851 97.539 106.851L97.7079 100.456C107.723 100.12 106.627 93.3042 106.627 93.3042C108.647 92.0416 106.206 90.6099 106.206 90.6099C104.272 88.8315 103.683 86.9909 103.683 86.9909C102.336 80.1751 97.6235 79.1659 97.6235 79.1659C97.1976 76.8072 96.6357 74.475 95.9406 72.1812C94.509 69.4046 93.3308 77.3986 93.3308 77.3986C88.9559 66.2835 85.328 66.7103 85.328 66.7103L84.9078 76.047C79.9416 75.7958 76.1558 79.8261 76.1558 79.8261C71.8721 83.8031 69.6846 83.8787 69.6846 83.8787C67.2393 80.6797 59.8389 76.0514 59.8389 76.0514C55.0416 72.5168 47.7213 64.5229 47.7213 64.5229C37.033 50.8069 22.1367 48.6173 22.1367 48.6173L18.5198 48.1127C14.0138 47.4458 11.6285 42.055 11.6285 42.055C4.39035 22.9505 13.8159 11.0017 13.8159 11.0017C20.5472 0.902501 32.4137 13.447 32.4137 13.447C35.8638 17.1483 38.8093 13.9516 38.8093 13.9516C40.6611 6.62898 30.393 1.91619 30.393 1.91619C17.5173 -3.97256 7.49599 5.59083 7.49599 5.59083C-4.11704 17.5106 5.05068 43.1597 5.05068 43.1597C8.1629 49.8065 4.29263 54.8572 4.29263 54.8572C0 62.0931 0 70.9296 0 70.9296C0.506847 89.8631 11.1929 98.784 11.1929 98.784C19.867 109.041 20.6228 114.258 20.6228 114.258L20.6228 122.928C21.1274 127.472 22.1367 128.65 22.1367 128.65L28.3611 135.381C30.8064 140.01 32.4848 140.683 32.4848 140.683C37.3754 142.62 39.6362 138.749 39.6362 138.749C41.9926 133.11 33.9987 131.342 33.9987 131.342L30.7175 127.134C27.6053 123.013 29.706 120.656 29.706 120.656L35.1768 112.155L35.3458 119.047C35.6815 122.159 36.7752 123.76 36.7752 123.76C45.1915 135.373 48.8951 136.208 48.8951 136.208C53.9435 136.713 54.9528 132.927 54.9528 132.927C55.962 127.961 49.3152 126.109 49.3152 126.109L45.5361 122.744C41.2412 117.709 43.4309 116.192 43.4309 116.192C45.1982 115.183 46.5431 111.228 46.5431 111.228C47.1322 109.208 50.3222 110.47 50.3222 110.47C53.4345 112.238 57.896 113.383 57.896 113.383C62.6088 113.605 69.0889 117.875 69.0889 117.875C77.9254 128.395 90.1275 134.875 90.1275 134.875C102.33 143.458 107.467 143.038 107.467 143.038C110.077 143.122 114.116 146.328 114.116 146.328C116.893 147.515 117.817 144.889 117.817 144.889C117.939 145.425 118.201 145.919 118.575 146.321C121.523 146.572 121.354 141.019 121.354 141.019L121.354 141.019Z" transform="translate(60.581055 20.0625)" id="Shape" fill="#FFFFFF" fill-rule="evenodd" stroke="none" />
  </g>
</svg>