<?xml version="1.0" encoding="utf-8"?>
<svg width="257px" height="256px" viewBox="0 0 257 256" version="1.1" xmlns:xlink="http://www.w3.org/1999/xlink" xmlns="http://www.w3.org/2000/svg">
  <path d="M256 128C256 198.692 198.692 256 128 256C57.3078 256 0 198.692 0 128C0 57.3078 57.3078 0 128 0C198.692 0 256 57.3078 256 128L256 128Z" id="Shape" fill="#FFFFFF" fill-rule="evenodd" stroke="none" />
  <path d="M190.274 127.154C188.052 123.813 185.711 120.461 183.153 117.096C180.777 113.975 178.219 110.855 175.568 107.739C171.363 102.792 166.958 98.0175 162.363 93.4269C162.349 93.4134 162.337 93.3981 162.323 93.3847C157.701 88.7944 152.894 84.3942 147.912 80.195C144.788 77.5573 141.66 75.0149 138.532 72.654C135.146 70.1001 131.775 67.764 128.418 65.5463C121.01 60.6497 113.697 56.5362 106.674 53.3672C103.003 51.7112 99.4403 50.3779 95.9498 49.2203C77.9917 43.274 62.7455 43.9846 53.8313 52.8658C44.916 61.7451 44.1997 76.9308 50.171 94.8164C51.3323 98.291 52.6738 101.839 54.3366 105.497C57.5164 112.492 61.6485 119.775 66.5631 127.154C68.7878 130.493 71.1257 133.845 73.688 137.211C76.0585 140.331 78.6169 143.45 81.2694 146.565C85.4857 151.528 89.9044 156.317 94.5143 160.92C99.1234 165.51 103.919 169.911 108.888 174.111C111.969 176.709 115.119 179.224 118.335 181.653C121.626 184.132 124.993 186.51 128.431 188.784C135.746 193.636 143.035 197.738 150.144 200.975C151.777 201.719 153.414 202.489 155.025 203.138C157.003 203.936 158.914 204.595 160.817 205.235C168.48 207.811 175.545 209.158 181.782 209.158C190.614 209.158 197.844 206.58 203.006 201.439C211.921 192.561 212.636 177.376 206.666 159.492C205.505 156.015 204.163 152.467 202.504 148.811C199.321 141.816 195.192 134.533 190.274 127.154L190.274 127.154ZM194.87 193.336C189.506 198.679 178.942 199.126 165.402 194.725C163.359 194.061 161.34 193.324 159.349 192.517C157.831 191.905 156.284 191.177 154.746 190.474C149.418 188.04 143.979 185.128 138.48 181.683C135.128 179.582 131.764 177.256 128.404 174.816C123.433 171.209 118.485 167.25 113.597 162.977C109.899 159.742 106.236 156.385 102.651 152.816C99.0063 149.184 95.6538 145.543 92.451 141.907C88.0792 136.947 84.1207 132.015 80.5726 127.154C78.0976 123.759 75.7635 120.392 73.6874 117.096C70.1557 111.485 67.2568 106.078 64.893 100.917C63.1995 97.226 61.7573 93.656 60.6679 90.2874C56.2961 76.8114 56.7008 66.2158 61.9673 60.9687C64.8403 58.1073 69.3089 56.6804 74.9734 56.6804C79.6933 56.6804 85.2513 57.6899 91.4019 59.6688C94.7927 60.7595 98.3696 62.174 102.085 63.8635C107.251 66.2139 112.687 69.1469 118.305 72.654C121.623 74.7265 124.998 76.9976 128.419 79.4713C133.563 83.1954 138.532 87.1549 143.308 91.3371C147.044 94.6025 150.672 97.988 154.186 101.488C157.831 105.121 161.184 108.761 164.387 112.397C168.758 117.357 172.717 122.289 176.264 127.154C178.744 130.549 181.078 133.914 183.153 137.211C186.686 142.821 189.581 148.231 191.949 153.389C193.642 157.082 195.08 160.652 196.174 164.022C200.542 177.495 200.137 188.09 194.869 193.336L194.87 193.336Z" id="Shape" fill="#746DE0" fill-opacity="0.8" fill-rule="evenodd" stroke="none" />
  <path d="M128.536 65.1799C125.195 67.4018 121.843 69.7426 118.478 72.301C115.357 74.6763 112.237 77.2347 109.121 79.8862C104.174 84.091 99.3992 88.4961 94.8086 93.0906C94.7951 93.1051 94.7798 93.1166 94.7665 93.131C90.1761 97.7523 85.7759 102.56 81.5768 107.542C78.939 110.666 76.3966 113.794 74.0357 116.921C71.4818 120.307 69.1457 123.679 66.928 127.035C62.0313 134.444 57.9178 141.757 54.7489 148.78C53.0928 152.451 51.7595 156.013 50.602 159.504C44.6556 177.462 45.3662 192.708 54.2474 201.622C63.1267 210.538 78.3123 211.254 96.198 205.283C99.6725 204.121 103.221 202.78 106.879 201.117C113.874 197.937 121.157 193.805 128.536 188.891C131.875 186.666 135.227 184.328 138.593 181.766C141.713 179.395 144.831 176.837 147.947 174.184C152.91 169.968 157.699 165.549 162.302 160.939C166.891 156.33 171.292 151.535 175.493 146.566C178.091 143.485 180.605 140.335 183.034 137.119C185.513 133.828 187.892 130.461 190.166 127.023C195.017 119.708 199.119 112.419 202.356 105.31C203.101 103.677 203.871 102.04 204.52 100.429C205.318 98.4514 205.977 96.5402 206.617 94.6367C209.193 86.9738 210.539 79.9093 210.539 73.6724C210.539 64.8396 207.962 57.6102 202.82 52.4482C193.943 43.5329 178.757 42.8175 160.874 48.7878C157.397 49.9491 153.849 51.2907 150.193 52.9496C143.198 56.1333 135.915 60.2615 128.536 65.1799L128.536 65.1799ZM194.713 60.5838C200.056 65.9481 200.504 76.5117 196.103 90.052C195.438 92.0953 194.701 94.1145 193.895 96.1057C193.282 97.6228 192.555 99.1705 191.851 100.709C189.417 106.036 186.505 111.476 183.06 116.974C180.959 120.327 178.633 123.691 176.193 127.051C172.586 132.021 168.627 136.969 164.354 141.858C161.119 145.555 157.762 149.218 154.193 152.803C150.561 156.448 146.92 159.8 143.284 163.003C138.325 167.375 133.393 171.333 128.531 174.882C125.136 177.357 121.769 179.691 118.473 181.767C112.862 185.298 107.455 188.197 102.294 190.561C98.6031 192.255 95.033 193.697 91.6645 194.786C78.1884 199.158 67.5929 198.753 62.3457 193.487C59.4843 190.614 58.0575 186.145 58.0575 180.481C58.0575 175.761 59.067 170.203 61.0459 164.052C62.1366 160.661 63.5511 157.084 65.2406 153.369C67.591 148.203 70.524 142.768 74.0311 137.149C76.1036 133.831 78.3748 130.456 80.8484 127.035C84.5725 121.891 88.5321 116.922 92.7143 112.146C95.9797 108.41 99.3652 104.782 102.866 101.268C106.498 97.6227 110.139 94.2702 113.775 91.0674C118.734 86.6966 123.666 82.7371 128.531 79.19C131.927 76.7101 135.291 74.3761 138.588 72.301C144.198 68.7683 149.608 65.8733 154.766 63.5056C158.459 61.8121 162.03 60.3738 165.399 59.2806C178.872 54.9126 189.467 55.3173 194.713 60.5848L194.713 60.5838Z" id="Shape-2" fill="#FF427A" fill-opacity="0.8" fill-rule="evenodd" stroke="none" />
  <path d="M84.5433 84.9906C83.7521 88.924 83.0368 92.9496 82.4667 97.1379C81.9392 101.025 81.542 105.04 81.214 109.118C80.689 115.589 80.4276 122.08 80.4304 128.575C80.4311 128.595 80.4283 128.614 80.4291 128.634C80.4509 135.147 80.739 141.658 81.2927 148.15C81.6366 152.225 82.0507 156.234 82.5924 160.115C83.1808 164.315 83.9131 168.351 84.7182 172.292C86.4945 180.994 88.7568 189.073 91.4822 196.28C92.9068 200.047 94.4831 203.509 96.1328 206.795C104.626 223.698 115.909 233.977 128.493 234C141.075 234.025 152.32 223.794 160.745 206.925C162.38 203.647 163.941 200.189 165.351 196.427C168.049 189.232 170.277 181.16 172.02 172.467C172.808 168.533 173.525 164.51 174.093 160.318C174.623 156.436 175.019 152.421 175.347 148.343C175.875 141.852 176.136 135.341 176.131 128.827C176.118 122.322 175.839 115.82 175.296 109.336C174.954 105.321 174.505 101.315 173.948 97.3231C173.374 93.2426 172.675 89.1802 171.852 85.1414C170.11 76.5384 167.857 68.4837 165.118 61.1678C164.49 59.4863 163.877 57.7845 163.196 56.1868C162.363 54.224 161.477 52.4066 160.584 50.6082C156.987 43.3683 152.944 37.4207 148.534 33.0105C142.288 26.7648 135.353 23.4756 128.068 23.4608C115.486 23.434 104.243 33.666 95.8187 50.5334C94.1816 53.8127 92.6213 57.2702 91.2091 61.0285C88.5142 68.2259 86.2832 76.2951 84.5433 84.9905L84.5433 84.9906ZM128.091 34.9429C135.662 34.9582 143.449 42.1111 149.911 54.7975C150.886 56.7125 151.793 58.661 152.63 60.6394C153.27 62.1451 153.85 63.7542 154.44 65.3395C156.486 70.8276 158.273 76.7328 159.725 83.0568C160.61 86.9131 161.344 90.9362 161.995 95.0377C162.958 101.103 163.658 107.401 164.093 113.879C164.421 118.781 164.637 123.745 164.648 128.804C164.657 133.949 164.453 138.894 164.147 143.73C163.731 150.328 163.043 156.615 162.114 162.561C161.463 166.712 160.733 170.743 159.871 174.542C158.4 181.007 156.627 186.88 154.649 192.201C153.236 196.008 151.732 199.552 150.12 202.705C143.682 215.325 135.904 222.531 128.47 222.517C124.415 222.509 120.246 220.358 116.241 216.353C112.903 213.015 109.687 208.372 106.737 202.623C105.111 199.454 103.582 195.925 102.149 192.103C100.158 186.788 98.3889 180.871 96.8959 174.418C96.0153 170.606 95.2344 166.613 94.5649 162.446C93.5605 156.175 92.8471 149.861 92.4269 143.527C92.0944 138.576 91.923 133.617 91.9131 128.657C91.904 123.511 92.1078 118.566 92.4141 113.73C92.8305 107.133 93.5182 100.845 94.4502 94.897C95.0975 90.7427 95.8263 86.713 96.6902 82.9145C98.1592 76.4495 99.9372 70.5773 101.911 65.2556C103.325 61.4467 104.832 57.9051 106.442 54.7495C112.88 42.1339 120.658 34.9286 128.092 34.9436L128.091 34.9429Z" id="Shape-3" fill="#3BABB7" fill-opacity="0.8" fill-rule="evenodd" stroke="none" />
  <path d="M172.714 83.3078C168.781 82.5165 164.755 81.8012 160.567 81.2311C156.68 80.7037 152.665 80.3065 148.587 79.9784C142.115 79.4535 135.624 79.192 129.129 79.1948C129.11 79.1956 129.091 79.1929 129.071 79.1936C122.557 79.2154 116.046 79.5036 109.554 80.0573C105.48 80.4011 101.47 80.8152 97.5898 81.357C93.3897 81.9454 89.3537 82.6776 85.4123 83.4828C76.7111 85.2591 68.6315 87.5214 61.4245 90.2468C57.6578 91.6714 54.196 93.2477 50.9093 94.8973C34.0064 103.391 23.7281 114.674 23.7047 127.257C23.6793 139.84 33.9106 151.084 50.7801 159.509C54.0581 161.145 57.5156 162.705 61.2779 164.116C68.4725 166.814 76.5445 169.042 85.2372 170.784C89.1714 171.572 93.1949 172.29 97.3866 172.858C101.269 173.388 105.283 173.784 109.362 174.111C115.853 174.639 122.363 174.901 128.878 174.896C135.382 174.882 141.885 174.603 148.369 174.06C152.384 173.718 156.39 173.269 160.382 172.713C164.462 172.138 168.525 171.439 172.563 170.617C181.166 168.875 189.221 166.621 196.537 163.883C198.218 163.255 199.92 162.641 201.518 161.961C203.481 161.127 205.298 160.242 207.097 159.348C214.336 155.751 220.284 151.708 224.694 147.298C230.94 141.052 234.229 134.118 234.244 126.832C234.271 114.251 224.039 103.007 207.171 94.5831C203.892 92.946 200.434 91.3857 196.676 89.9736C189.479 87.2786 181.41 85.0476 172.714 83.3078L172.714 83.3078ZM222.762 126.855C222.746 134.426 215.593 142.213 202.907 148.675C200.992 149.65 199.043 150.557 197.065 151.394C195.559 152.034 193.95 152.614 192.365 153.204C186.877 155.25 180.972 157.037 174.648 158.489C170.791 159.374 166.768 160.108 162.667 160.759C156.602 161.723 150.304 162.422 143.825 162.858C138.923 163.185 133.959 163.401 128.901 163.412C123.755 163.421 118.81 163.217 113.974 162.911C107.376 162.495 101.09 161.807 95.1432 160.878C90.9923 160.228 86.9614 159.498 83.1628 158.635C76.6978 157.165 70.8242 155.391 65.5039 153.413C61.6963 152.001 58.152 150.496 54.9998 148.884C42.3795 142.447 35.1735 134.668 35.1871 127.234C35.1953 123.179 37.3462 119.01 41.3516 115.005C44.689 111.668 49.333 108.451 55.0814 105.502C58.2503 103.875 61.7797 102.346 65.6019 100.913C70.9167 98.9225 76.834 97.1531 83.2866 95.6602C87.0982 94.7795 91.091 93.9986 95.2588 93.3291C101.53 92.3247 107.843 91.6113 114.178 91.191C119.128 90.8586 124.087 90.6872 129.048 90.6772C134.194 90.6681 139.138 90.872 143.974 91.1783C150.572 91.5946 156.859 92.2823 162.807 93.2143C166.962 93.8616 170.991 94.5904 174.79 95.4543C181.255 96.9233 187.127 98.7013 192.449 100.675C196.258 102.089 199.799 103.596 202.955 105.206C215.571 111.644 222.776 119.422 222.761 126.856L222.762 126.855Z" id="Shape-4" fill="#F8A131" fill-opacity="0.8" fill-rule="evenodd" stroke="none" />
  <path d="M112.652 127.303C112.652 118.676 119.646 111.683 128.273 111.683C136.9 111.683 143.894 118.676 143.894 127.303C143.894 135.931 136.9 142.924 128.273 142.924C119.646 142.924 112.652 135.931 112.652 127.303Z" id="Ellipse" fill="#3994E3" fill-rule="evenodd" stroke="none" />
</svg>